<?xml version="1.0" encoding="utf-8"?>
<!-- Generator: Adobe Illustrator 15.0.0, SVG Export Plug-In . SVG Version: 6.00 Build 0)  -->
<!DOCTYPE svg PUBLIC "-//W3C//DTD SVG 1.1//EN" "http://www.w3.org/Graphics/SVG/1.1/DTD/svg11.dtd">
<svg version="1.1" id="Calque_1" xmlns="http://www.w3.org/2000/svg" xmlns:xlink="http://www.w3.org/1999/xlink" x="0px" y="0px"
	 width="200px" height="80px" viewBox="0 0 200 80" enable-background="new 0 0 200 80" xml:space="preserve">
<g>
	<rect fill="#FFFFFF" width="200" height="79.776"/>
	<g>
		<g>
			<path d="M38.01,28.183c0.679-0.417,4.338-2.362,10.241,0.076c6.072,2.506,9.839,0.329,10.307,0.033
				c-1.468-2.413-3.214-4.513-5.144-5.925c0.128-0.036,0.26-0.071,0.399-0.113c2.56-0.739,3.21-2.907,3.347-4.764
				c0.155-2.105,0.262-2.138,0.719-4.031c0.439-1.819-0.05-2.184-0.502-1.816c-0.243,0.198-2.359,0.687-3.614,1.665
				c-2.026,1.582-3.275,4.588-3.842,6.25c-0.01,0.025-0.086,0.256-0.112,0.337c-0.264,0.636-0.79,0.634-0.79,0.634l0,0
				c-0.255-0.027-0.511-0.042-0.769-0.042c-0.229,0-0.458,0.012-0.687,0.033c-0.005,0.001-0.008,0-0.014,0.001
				c-0.672,0.099-1.041-0.721-1.118-0.917c-0.785-2.254-2.896-6.699-7.643-7.895c0,0-0.862-0.66-0.599,0.457
				c0.25,1.067,0.767,2.146,0.651,3.714c-0.052,0.725-0.501,4.438,2.911,6.37c0.324,0.184,0.613,0.338,0.872,0.468
				C40.907,24.094,39.345,26.01,38.01,28.183z"/>
			<path d="M60.417,62.144c-4.182-2.591-5.59-3.503-5.502-4.493c0,0,0.001-0.162,0.043-0.408c0.102-0.525,0.422-1.422,1.447-1.934
				c0.034-0.017,0.062-0.036,0.088-0.055c3.259-1.892,5.64-4.936,6.479-8.737c-0.845,2.101-7.111,3.73-14.722,3.73
				c-7.608,0-13.876-1.63-14.722-3.73c0.188,0.854,0.456,1.667,0.792,2.439c0.283,1.593,0.663,5.34-1.137,8.62
				c-1.586,2.89-9.413,6.829-21.029,4.567c0,0-0.466-0.325-0.606-0.058c-0.209,0.396,0.645,0.716,1.522,0.947
				c8.087,2.143,20.294,1.271,24.128-1.889c1.75-1.438,2.424-3.379,2.596-5.467l0.001,0.003c0,0,0.046-0.546,0.731-0.136
				c0.195,0.118,0.902,0.579,1.016,1.099c0.099,0.74,0.105,1.65-0.277,2.287c-0.547,0.911-0.553,1.042,0.167,1.557
				c0.442,0.315,2.248,1.642,4.759,3.15c0.006,0.005,0.009,0.009,0.016,0.013c0.532,0.319,1.27,1.103,1.27,1.103l0,0
				c1.131,1.31,3.592,3.941,4.664,3.446c0.506-0.234-0.021-1.289-0.021-1.289s0.841,1.093,1.293,0.721
				c0.343-0.284-0.201-1.373-0.201-1.373s0.734,0.638,1.171,0.402c0.535-0.288-0.079-1.961-4.283-4.517
				c-4.206-2.557-5.346-2.949-5.446-4.091c0,0-0.002-0.058,0.001-0.155c0.034-0.252,0.176-0.785,0.787-0.728
				c0.911,0.147,1.848,0.226,2.809,0.226c1.1,0,2.17-0.101,3.202-0.293l0.001,0.001c0,0,0.054-0.011,0.07-0.014
				c0.121-0.016,0.355-0.007,0.356,0.285c-0.037,0.371-0.141,0.744-0.358,1.07c-0.616,0.922-0.413,1.049,0.229,1.64
				c0.396,0.366,2.215,1.965,4.705,3.512c0.005,0.004,0.007,0.008,0.013,0.011c0.531,0.319,1.449,1.197,1.449,1.197l0,0
				c1.032,1.047,2.929,2.803,3.964,2.696c0.699-0.071,0.13-1.275,0.13-1.275s0.883,0.853,1.316,0.602
				c0.485-0.28-0.201-1.171-0.201-1.171s0.568,0.301,0.971,0.201C64.499,65.757,64.6,64.733,60.417,62.144z"/>
		</g>
		<g>
			<path d="M55.745,32.863c-0.502,0-0.919,0.151-1.238,0.449c-0.322,0.302-0.485,0.65-0.485,1.036v6.823
				c0,0.917-0.162,1.591-0.482,2.007c-0.31,0.402-0.804,0.598-1.512,0.598c-0.724,0-1.217-0.194-1.508-0.593
				c-0.304-0.417-0.458-1.093-0.458-2.012v-6.85c0-0.466-0.212-0.849-0.615-1.104c-0.548-0.345-1.092-0.47-1.755-0.249
				c-0.202,0.068-0.393,0.155-0.566,0.261c-0.185,0.113-0.341,0.254-0.464,0.418c-0.138,0.184-0.207,0.383-0.207,0.594v6.929
				c0,0.918-0.155,1.594-0.458,2.011c-0.293,0.399-0.786,0.594-1.508,0.594c-0.725,0-1.223-0.194-1.523-0.596
				c-0.312-0.416-0.471-1.092-0.471-2.009v-6.823c0-0.386-0.163-0.734-0.486-1.036c-0.319-0.298-0.745-0.449-1.264-0.449
				c-0.535,0-0.976,0.149-1.311,0.444c-0.345,0.302-0.519,0.652-0.519,1.041v6.717c0,0.845,0.082,1.645,0.244,2.375
				c0.167,0.747,0.458,1.402,0.865,1.948c0.411,0.552,0.969,0.988,1.66,1.296c0.684,0.306,1.538,0.459,2.54,0.459
				c1.043,0,1.919-0.193,2.599-0.575c0.57-0.32,1.051-0.741,1.433-1.254c0.368,0.513,0.837,0.934,1.4,1.254
				c0.671,0.382,1.559,0.575,2.639,0.575c1.002,0,1.853-0.154,2.527-0.459c0.681-0.309,1.233-0.744,1.646-1.296
				c0.409-0.548,0.699-1.203,0.865-1.948c0.162-0.73,0.244-1.53,0.244-2.375v-6.717c0-0.387-0.169-0.737-0.502-1.039
				C56.745,33.013,56.298,32.863,55.745,32.863z"/>
			<path d="M75.549,34.436c-0.475-0.492-1.089-0.883-1.827-1.16c-0.733-0.274-1.609-0.413-2.605-0.413
				c-1.073,0-2.027,0.19-2.834,0.567c-0.806,0.375-1.484,0.873-2.017,1.478c-0.53,0.604-0.938,1.29-1.212,2.04
				c-0.273,0.75-0.413,1.518-0.413,2.286v2.336c0,0.694,0.107,1.38,0.316,2.036c0.213,0.664,0.536,1.263,0.959,1.777
				c0.427,0.521,0.981,0.948,1.646,1.271c0.669,0.324,1.454,0.488,2.334,0.488c0.546,0,1.014-0.042,1.393-0.125
				c0.383-0.085,0.723-0.209,1.007-0.37c0.285-0.162,0.531-0.35,0.732-0.561c0.12-0.126,0.237-0.262,0.348-0.404v0.107
				c0,0.386,0.164,0.734,0.486,1.036c0.319,0.298,0.735,0.449,1.237,0.449c0.554,0,1.001-0.15,1.328-0.447
				c0.333-0.302,0.502-0.651,0.502-1.038v-7.435c0-0.782-0.112-1.513-0.331-2.172C76.376,35.517,76.023,34.928,75.549,34.436z
				 M69.967,36.462c0.338-0.153,0.726-0.231,1.149-0.231c0.735,0,1.304,0.165,1.693,0.489c0.376,0.314,0.566,0.883,0.566,1.69v2.496
				c0,0.478-0.082,0.899-0.244,1.256c-0.163,0.358-0.377,0.657-0.634,0.891c-0.259,0.235-0.559,0.416-0.892,0.538
				c-0.334,0.123-0.687,0.185-1.046,0.185c-0.651,0-1.179-0.204-1.615-0.625c-0.434-0.416-0.644-0.899-0.644-1.475v-2.548
				c0-0.393,0.069-0.765,0.208-1.106c0.139-0.343,0.334-0.655,0.58-0.925C69.33,36.83,69.625,36.617,69.967,36.462z"/>
			<path d="M86.356,28.35c-0.535,0-0.976,0.149-1.312,0.444c-0.344,0.302-0.519,0.653-0.519,1.041v15.823
				c0,0.389,0.175,0.738,0.519,1.041c0.336,0.294,0.777,0.444,1.312,0.444c0.519,0,0.944-0.151,1.263-0.449
				c0.323-0.303,0.487-0.65,0.487-1.036V29.835c0-0.385-0.164-0.734-0.487-1.037C87.301,28.501,86.875,28.35,86.356,28.35z"/>
			<path d="M97.693,28.35c-0.534,0-0.976,0.149-1.312,0.444c-0.344,0.302-0.519,0.653-0.519,1.041v15.823
				c0,0.389,0.175,0.738,0.519,1.041c0.336,0.294,0.778,0.444,1.312,0.444c0.519,0,0.945-0.151,1.264-0.449
				c0.323-0.303,0.487-0.65,0.487-1.036V29.835c0-0.385-0.164-0.734-0.487-1.037C98.638,28.501,98.212,28.35,97.693,28.35z"/>
			<path d="M117.604,34.436c-0.475-0.492-1.09-0.883-1.827-1.16c-0.733-0.274-1.609-0.413-2.605-0.413
				c-1.073,0-2.027,0.19-2.834,0.567c-0.806,0.375-1.484,0.873-2.017,1.478c-0.529,0.603-0.938,1.289-1.213,2.04
				c-0.274,0.75-0.413,1.518-0.413,2.286v2.336c0,0.693,0.107,1.378,0.316,2.036c0.212,0.663,0.535,1.262,0.959,1.777
				c0.428,0.521,0.981,0.948,1.646,1.271c0.669,0.324,1.454,0.488,2.334,0.488c0.546,0,1.015-0.042,1.393-0.125
				c0.384-0.085,0.723-0.209,1.009-0.37c0.283-0.161,0.529-0.35,0.731-0.561c0.119-0.126,0.236-0.262,0.348-0.404v0.107
				c0,0.386,0.164,0.734,0.486,1.036c0.319,0.298,0.734,0.449,1.237,0.449c0.555,0,1.001-0.15,1.328-0.446
				c0.333-0.303,0.502-0.652,0.502-1.039v-7.435c0-0.782-0.111-1.513-0.331-2.172C118.431,35.518,118.078,34.93,117.604,34.436z
				 M112.021,36.462c0.338-0.153,0.726-0.231,1.149-0.231c0.735,0,1.305,0.165,1.693,0.489c0.375,0.313,0.565,0.883,0.565,1.69
				v2.496c0,0.477-0.082,0.898-0.244,1.256c-0.162,0.358-0.377,0.657-0.633,0.891c-0.26,0.235-0.56,0.416-0.892,0.538
				c-0.335,0.123-0.688,0.185-1.048,0.185c-0.649,0-1.178-0.204-1.613-0.625c-0.435-0.416-0.645-0.899-0.645-1.475v-2.548
				c0-0.393,0.069-0.765,0.208-1.106c0.138-0.343,0.333-0.654,0.579-0.924C111.385,36.83,111.681,36.617,112.021,36.462z"/>
			<path d="M137.487,34.715c-0.481-0.583-1.1-1.043-1.84-1.368c-0.736-0.321-1.617-0.484-2.617-0.484
				c-0.702,0-1.344,0.128-1.902,0.379c-0.439,0.198-0.825,0.464-1.152,0.795v-4.203c0-0.385-0.164-0.734-0.487-1.037
				c-0.319-0.297-0.744-0.448-1.264-0.448c-0.534,0-0.976,0.149-1.312,0.444c-0.344,0.302-0.519,0.653-0.519,1.041v11.814
				c0,0.788,0.135,1.527,0.402,2.198c0.268,0.675,0.676,1.271,1.214,1.771c0.534,0.498,1.21,0.89,2.009,1.166
				c0.79,0.272,1.723,0.411,2.772,0.411c1.019,0,1.922-0.172,2.685-0.512s1.41-0.807,1.926-1.387c0.515-0.58,0.902-1.261,1.15-2.022
				c0.246-0.754,0.369-1.569,0.369-2.422v-1.54c0-0.921-0.119-1.78-0.354-2.552C138.328,35.982,137.966,35.294,137.487,34.715z
				 M132.792,43.829c-0.817,0-1.508-0.176-2.05-0.521c-0.516-0.328-0.767-0.836-0.767-1.552v-3.045
				c0.032-0.863,0.284-1.497,0.75-1.884c0.477-0.396,1.082-0.596,1.801-0.596c0.843,0,1.504,0.26,2.019,0.791
				c0.512,0.527,0.771,1.316,0.771,2.344v1.594c0,0.874-0.234,1.581-0.696,2.098C134.157,43.577,133.56,43.829,132.792,43.829z"/>
			<path d="M156.419,34.436c-0.474-0.492-1.089-0.883-1.826-1.16c-0.734-0.274-1.61-0.413-2.605-0.413
				c-1.074,0-2.028,0.19-2.836,0.567c-0.805,0.375-1.483,0.873-2.016,1.478c-0.53,0.603-0.938,1.289-1.213,2.04
				c-0.273,0.75-0.412,1.518-0.412,2.286v2.336c0,0.693,0.106,1.378,0.316,2.036c0.211,0.663,0.534,1.262,0.958,1.777
				c0.428,0.521,0.981,0.948,1.646,1.271c0.668,0.324,1.453,0.488,2.334,0.488c0.545,0,1.013-0.042,1.392-0.125
				c0.384-0.085,0.723-0.209,1.008-0.37c0.284-0.161,0.529-0.35,0.731-0.561c0.121-0.126,0.237-0.262,0.349-0.404v0.107
				c0,0.386,0.164,0.734,0.487,1.036c0.317,0.298,0.734,0.449,1.236,0.449c0.554,0,1-0.15,1.328-0.446
				c0.334-0.303,0.502-0.652,0.502-1.039v-7.435c0-0.782-0.11-1.513-0.33-2.172C157.245,35.518,156.893,34.93,156.419,34.436z
				 M150.836,36.462c0.34-0.153,0.727-0.231,1.151-0.231c0.734,0,1.304,0.165,1.691,0.489c0.376,0.313,0.566,0.883,0.566,1.69v2.496
				c0,0.477-0.081,0.898-0.244,1.256c-0.163,0.358-0.376,0.657-0.634,0.891c-0.259,0.235-0.559,0.416-0.891,0.538
				c-0.335,0.123-0.688,0.185-1.047,0.185c-0.651,0-1.179-0.204-1.615-0.625c-0.433-0.416-0.645-0.899-0.645-1.475v-2.548
				c0-0.393,0.071-0.765,0.21-1.106c0.138-0.343,0.332-0.654,0.578-0.924C150.201,36.83,150.496,36.617,150.836,36.462z"/>
			<path d="M176.636,36.05c-0.224-0.651-0.577-1.222-1.052-1.697c-0.473-0.473-1.088-0.849-1.826-1.117
				c-0.732-0.265-1.607-0.399-2.603-0.399c-1.074,0-2.023,0.191-2.822,0.567c-0.798,0.375-1.471,0.877-2.003,1.493
				c-0.532,0.613-0.936,1.333-1.201,2.139c-0.263,0.799-0.397,1.636-0.397,2.49v1.566c0,1.855,0.476,3.342,1.412,4.417
				c0.946,1.085,2.302,1.635,4.029,1.635c0.921,0,1.679-0.162,2.253-0.482c0.39-0.217,0.721-0.481,0.987-0.789v0.769
				c0,0.588-0.065,1.064-0.196,1.417c-0.128,0.343-0.303,0.615-0.52,0.81c-0.218,0.193-0.479,0.326-0.774,0.397
				c-0.316,0.074-0.673,0.112-1.06,0.112c-0.638,0-1.136-0.034-1.481-0.102c-0.38-0.074-0.669-0.11-0.882-0.11
				c-0.557,0-0.983,0.139-1.266,0.411c-0.287,0.275-0.431,0.646-0.431,1.1c0,0.615,0.331,1.138,1.027,1.576
				c0.249,0.096,0.641,0.178,1.195,0.252c0.542,0.072,1.159,0.108,1.837,0.108c0.799,0,1.573-0.12,2.303-0.356
				c0.734-0.238,1.392-0.606,1.954-1.095c0.564-0.491,1.018-1.116,1.35-1.861c0.33-0.744,0.498-1.64,0.498-2.659v-8.522
				C176.968,37.387,176.856,36.691,176.636,36.05z M170.014,36.459c0.336-0.168,0.72-0.254,1.142-0.254
				c0.738,0,1.311,0.152,1.699,0.455c0.376,0.292,0.559,0.734,0.559,1.353v3.309c-0.032,0.857-0.286,1.464-0.773,1.855
				c-0.501,0.403-1.083,0.599-1.776,0.599c-1.699,0-2.524-0.843-2.524-2.578v-1.778c0-0.449,0.072-0.873,0.212-1.261
				c0.139-0.386,0.334-0.727,0.581-1.014C169.375,36.86,169.672,36.629,170.014,36.459z"/>
		</g>
	</g>
</g>
</svg>
