<?xml version="1.0" encoding="utf-8"?>
<!-- Generator: Adobe Illustrator 15.0.0, SVG Export Plug-In . SVG Version: 6.00 Build 0)  -->
<!DOCTYPE svg PUBLIC "-//W3C//DTD SVG 1.1//EN" "http://www.w3.org/Graphics/SVG/1.1/DTD/svg11.dtd">
<svg version="1.1" id="Calque_1" xmlns="http://www.w3.org/2000/svg" xmlns:xlink="http://www.w3.org/1999/xlink" x="0px" y="0px"
	 width="200px" height="80px" viewBox="0 0 200 80" enable-background="new 0 0 200 80" xml:space="preserve">
<g>
	<rect fill="none" width="200" height="79.777"/>
	<g>
		<g>
			<path d="M38.01,28.183c0.679-0.417,4.337-2.362,10.241,0.075c6.072,2.506,9.839,0.33,10.307,0.033
				c-1.468-2.413-3.214-4.513-5.145-5.925c0.129-0.035,0.261-0.07,0.4-0.112c2.56-0.741,3.209-2.908,3.347-4.764
				c0.155-2.104,0.262-2.138,0.719-4.031c0.438-1.82-0.051-2.183-0.502-1.816c-0.243,0.198-2.358,0.687-3.614,1.666
				c-2.026,1.581-3.276,4.587-3.842,6.249c-0.011,0.026-0.087,0.257-0.112,0.337c-0.264,0.637-0.79,0.635-0.79,0.635v0.001
				c-0.254-0.028-0.511-0.043-0.768-0.043c-0.23,0-0.458,0.012-0.687,0.035c-0.005,0.001-0.008,0-0.013,0
				c-0.672,0.099-1.042-0.721-1.119-0.917c-0.785-2.254-2.896-6.698-7.643-7.895c0,0-0.862-0.66-0.599,0.457
				c0.25,1.067,0.766,2.146,0.652,3.715c-0.053,0.724-0.502,4.438,2.912,6.37c0.323,0.184,0.612,0.338,0.871,0.468
				C40.906,24.095,39.346,26.01,38.01,28.183z"/>
			<path d="M60.417,62.144c-4.182-2.591-5.589-3.503-5.501-4.494c0,0,0-0.16,0.042-0.407c0.102-0.524,0.423-1.422,1.448-1.933
				c0.033-0.017,0.061-0.037,0.088-0.055c3.259-1.892,5.64-4.938,6.479-8.737c-0.847,2.099-7.112,3.73-14.723,3.73
				c-7.608,0-13.876-1.632-14.721-3.73c0.188,0.852,0.456,1.666,0.792,2.439c0.283,1.592,0.664,5.339-1.136,8.62
				c-1.586,2.89-9.414,6.829-21.03,4.566c0,0-0.466-0.325-0.606-0.057c-0.208,0.396,0.645,0.715,1.522,0.946
				c8.088,2.143,20.295,1.271,24.129-1.888c1.749-1.44,2.424-3.38,2.595-5.467l0.001,0.003c0,0,0.046-0.548,0.731-0.136
				c0.195,0.117,0.903,0.577,1.016,1.098c0.098,0.741,0.105,1.649-0.277,2.287c-0.547,0.912-0.553,1.043,0.167,1.556
				c0.442,0.316,2.247,1.644,4.758,3.151c0.007,0.005,0.01,0.009,0.017,0.012c0.531,0.321,1.27,1.104,1.27,1.104l0,0
				c1.131,1.31,3.592,3.943,4.663,3.446c0.506-0.233-0.021-1.287-0.021-1.287s0.842,1.092,1.293,0.718
				c0.343-0.283-0.201-1.37-0.201-1.37s0.735,0.637,1.172,0.4c0.535-0.288-0.08-1.962-4.283-4.517
				c-4.206-2.558-5.345-2.95-5.446-4.09c0,0-0.002-0.059,0.002-0.156c0.033-0.251,0.175-0.784,0.787-0.728
				c0.909,0.146,1.848,0.227,2.809,0.227c1.099,0,2.17-0.102,3.202-0.295l0.001,0.002c0,0,0.054-0.01,0.069-0.014
				c0.121-0.015,0.356-0.006,0.357,0.285c-0.038,0.37-0.141,0.744-0.358,1.07c-0.616,0.922-0.413,1.048,0.229,1.641
				c0.396,0.366,2.215,1.965,4.705,3.512c0.005,0.004,0.006,0.007,0.013,0.011c0.53,0.319,1.449,1.196,1.449,1.196l0,0
				c1.032,1.048,2.93,2.802,3.964,2.696c0.699-0.071,0.13-1.274,0.13-1.274s0.883,0.851,1.316,0.601
				c0.485-0.279-0.201-1.17-0.201-1.17s0.569,0.301,0.97,0.2C64.5,65.756,64.6,64.733,60.417,62.144z"/>
		</g>
		<g>
			<path d="M55.745,32.863c-0.501,0-0.919,0.151-1.237,0.449c-0.323,0.302-0.487,0.651-0.487,1.036v6.823
				c0,0.917-0.162,1.591-0.481,2.006c-0.31,0.402-0.804,0.598-1.511,0.598c-0.724,0-1.217-0.193-1.508-0.592
				c-0.304-0.416-0.458-1.093-0.458-2.012v-6.849c0-0.467-0.212-0.848-0.616-1.103c-0.548-0.345-1.092-0.47-1.754-0.25
				c-0.203,0.068-0.393,0.156-0.566,0.262c-0.186,0.112-0.341,0.254-0.465,0.418c-0.136,0.183-0.206,0.382-0.206,0.593v6.929
				c0,0.917-0.154,1.594-0.458,2.012c-0.292,0.398-0.785,0.592-1.508,0.592c-0.725,0-1.223-0.193-1.523-0.594
				c-0.312-0.417-0.47-1.093-0.47-2.01v-6.823c0-0.385-0.164-0.734-0.487-1.036c-0.319-0.298-0.745-0.449-1.264-0.449
				c-0.535,0-0.976,0.15-1.311,0.444c-0.345,0.302-0.52,0.652-0.52,1.041v6.717c0,0.846,0.083,1.645,0.245,2.375
				c0.166,0.746,0.458,1.401,0.865,1.948c0.411,0.553,0.969,0.988,1.66,1.297c0.683,0.304,1.537,0.459,2.539,0.459
				c1.044,0,1.918-0.193,2.599-0.576c0.57-0.319,1.051-0.741,1.433-1.255c0.368,0.514,0.837,0.936,1.4,1.255
				c0.671,0.383,1.559,0.576,2.639,0.576c1.002,0,1.853-0.155,2.527-0.46c0.68-0.308,1.234-0.743,1.646-1.296
				c0.408-0.548,0.698-1.203,0.864-1.948c0.162-0.73,0.245-1.529,0.245-2.375v-6.717c0-0.387-0.17-0.736-0.503-1.039
				C56.745,33.014,56.298,32.863,55.745,32.863z"/>
			<path d="M75.549,34.436c-0.474-0.492-1.088-0.882-1.827-1.16c-0.732-0.274-1.61-0.413-2.604-0.413
				c-1.074,0-2.027,0.191-2.835,0.567c-0.806,0.376-1.485,0.873-2.016,1.479c-0.531,0.604-0.939,1.291-1.213,2.041
				c-0.273,0.749-0.412,1.518-0.412,2.284v2.337c0,0.695,0.106,1.38,0.316,2.037c0.212,0.664,0.535,1.262,0.959,1.777
				c0.427,0.521,0.98,0.947,1.645,1.27c0.669,0.324,1.454,0.49,2.335,0.49c0.545,0,1.013-0.043,1.391-0.126
				c0.384-0.084,0.723-0.208,1.008-0.37c0.286-0.161,0.531-0.35,0.732-0.56c0.12-0.128,0.237-0.262,0.348-0.404v0.106
				c0,0.387,0.164,0.734,0.487,1.036c0.319,0.298,0.735,0.45,1.237,0.45c0.554,0,1-0.151,1.327-0.447
				c0.333-0.303,0.502-0.652,0.502-1.039v-7.434c0-0.783-0.111-1.515-0.33-2.173C76.375,35.517,76.022,34.928,75.549,34.436z
				 M69.967,36.462c0.339-0.152,0.726-0.23,1.15-0.23c0.734,0,1.304,0.164,1.692,0.488c0.376,0.314,0.566,0.882,0.566,1.69v2.496
				c0,0.477-0.082,0.9-0.244,1.256c-0.163,0.358-0.376,0.657-0.634,0.891c-0.259,0.235-0.559,0.416-0.891,0.538
				c-0.335,0.123-0.687,0.184-1.048,0.184c-0.65,0-1.178-0.203-1.614-0.624c-0.434-0.417-0.645-0.898-0.645-1.475v-2.549
				c0-0.392,0.07-0.765,0.209-1.105c0.137-0.343,0.333-0.654,0.579-0.925C69.33,36.83,69.625,36.618,69.967,36.462z"/>
			<path d="M86.356,28.35c-0.535,0-0.976,0.149-1.312,0.444c-0.344,0.302-0.519,0.652-0.519,1.041v15.823
				c0,0.389,0.175,0.738,0.519,1.041c0.336,0.295,0.777,0.445,1.312,0.445c0.52,0,0.945-0.152,1.264-0.45
				c0.323-0.301,0.487-0.65,0.487-1.036V29.835c0-0.386-0.164-0.733-0.487-1.036C87.301,28.501,86.875,28.35,86.356,28.35z"/>
			<path d="M97.693,28.35c-0.535,0-0.976,0.149-1.312,0.444c-0.344,0.302-0.519,0.652-0.519,1.041v15.823
				c0,0.389,0.174,0.738,0.519,1.041c0.336,0.295,0.777,0.445,1.312,0.445c0.52,0,0.945-0.152,1.264-0.45
				c0.323-0.301,0.486-0.65,0.486-1.036V29.835c0-0.386-0.164-0.733-0.486-1.036C98.638,28.501,98.212,28.35,97.693,28.35z"/>
			<path d="M117.604,34.436c-0.475-0.492-1.09-0.882-1.827-1.16c-0.733-0.274-1.61-0.413-2.604-0.413
				c-1.074,0-2.028,0.191-2.836,0.567c-0.805,0.376-1.483,0.873-2.017,1.479c-0.529,0.604-0.937,1.29-1.212,2.041
				c-0.273,0.749-0.412,1.518-0.412,2.284v2.337c0,0.693,0.105,1.379,0.315,2.037c0.212,0.662,0.534,1.262,0.96,1.777
				c0.427,0.521,0.98,0.947,1.645,1.27c0.669,0.324,1.454,0.49,2.335,0.49c0.545,0,1.013-0.043,1.391-0.126
				c0.384-0.084,0.724-0.208,1.009-0.37c0.284-0.161,0.53-0.35,0.731-0.56c0.12-0.128,0.237-0.262,0.349-0.404v0.106
				c0,0.387,0.164,0.734,0.486,1.036c0.319,0.298,0.735,0.45,1.237,0.45c0.554,0,1.001-0.151,1.328-0.447
				c0.333-0.302,0.502-0.652,0.502-1.039v-7.434c0-0.783-0.111-1.515-0.33-2.173C118.431,35.517,118.077,34.93,117.604,34.436z
				 M112.021,36.462c0.338-0.152,0.726-0.23,1.15-0.23c0.733,0,1.304,0.164,1.692,0.488c0.375,0.314,0.565,0.882,0.565,1.69v2.496
				c0,0.477-0.082,0.898-0.244,1.256c-0.163,0.358-0.376,0.657-0.634,0.891c-0.259,0.235-0.559,0.416-0.892,0.538
				c-0.335,0.123-0.687,0.184-1.047,0.184c-0.65,0-1.178-0.203-1.614-0.624c-0.434-0.417-0.645-0.898-0.645-1.475v-2.549
				c0-0.392,0.07-0.765,0.209-1.105c0.138-0.343,0.333-0.654,0.58-0.925C111.385,36.83,111.681,36.618,112.021,36.462z"/>
			<path d="M137.487,34.715c-0.481-0.583-1.101-1.042-1.84-1.367c-0.736-0.322-1.617-0.485-2.617-0.485
				c-0.702,0-1.343,0.128-1.902,0.38c-0.438,0.197-0.826,0.464-1.153,0.795v-4.203c0-0.386-0.163-0.734-0.486-1.036
				c-0.319-0.298-0.744-0.449-1.264-0.449c-0.534,0-0.976,0.149-1.312,0.444c-0.345,0.302-0.518,0.652-0.518,1.041v11.814
				c0,0.788,0.135,1.527,0.401,2.198c0.267,0.675,0.676,1.272,1.214,1.772c0.533,0.496,1.21,0.889,2.009,1.165
				c0.79,0.273,1.723,0.411,2.771,0.411c1.02,0,1.923-0.173,2.686-0.511c0.763-0.341,1.41-0.808,1.926-1.387
				c0.516-0.581,0.902-1.261,1.15-2.022c0.245-0.755,0.37-1.57,0.37-2.423v-1.541c0-0.92-0.12-1.779-0.356-2.551
				C138.328,35.982,137.966,35.294,137.487,34.715z M132.791,43.829c-0.816,0-1.507-0.175-2.05-0.521
				c-0.516-0.327-0.767-0.836-0.767-1.552v-3.044c0.033-0.864,0.286-1.498,0.751-1.883c0.476-0.396,1.082-0.596,1.8-0.596
				c0.844,0,1.505,0.258,2.021,0.79c0.512,0.528,0.77,1.315,0.77,2.345v1.592c0,0.874-0.234,1.581-0.697,2.098
				C134.157,43.576,133.56,43.829,132.791,43.829z"/>
			<path d="M156.419,34.436c-0.475-0.492-1.089-0.882-1.827-1.16c-0.733-0.274-1.609-0.413-2.605-0.413
				c-1.073,0-2.027,0.191-2.835,0.567c-0.805,0.376-1.483,0.873-2.016,1.479c-0.53,0.604-0.938,1.29-1.213,2.041
				c-0.273,0.749-0.413,1.518-0.413,2.284v2.337c0,0.693,0.107,1.379,0.316,2.037c0.212,0.662,0.534,1.262,0.959,1.777
				c0.427,0.521,0.981,0.947,1.646,1.27c0.668,0.324,1.453,0.49,2.333,0.49c0.546,0,1.015-0.043,1.393-0.126
				c0.384-0.084,0.723-0.208,1.008-0.37c0.284-0.161,0.53-0.35,0.731-0.56c0.121-0.128,0.237-0.262,0.349-0.404v0.106
				c0,0.387,0.164,0.734,0.486,1.036c0.318,0.298,0.735,0.45,1.237,0.45c0.554,0,1.001-0.151,1.328-0.447
				c0.333-0.302,0.503-0.652,0.503-1.039v-7.434c0-0.783-0.112-1.515-0.331-2.173C157.246,35.517,156.894,34.93,156.419,34.436z
				 M150.836,36.462c0.34-0.152,0.727-0.23,1.15-0.23c0.735,0,1.305,0.164,1.693,0.488c0.375,0.314,0.565,0.882,0.565,1.69v2.496
				c0,0.477-0.082,0.898-0.244,1.256c-0.163,0.358-0.376,0.657-0.634,0.891c-0.259,0.235-0.559,0.416-0.892,0.538
				c-0.334,0.123-0.687,0.184-1.047,0.184c-0.65,0-1.178-0.203-1.613-0.624c-0.435-0.417-0.646-0.898-0.646-1.475v-2.549
				c0-0.392,0.07-0.765,0.209-1.105c0.139-0.343,0.333-0.654,0.579-0.925C150.201,36.83,150.496,36.618,150.836,36.462z"/>
			<path d="M176.637,36.05c-0.224-0.65-0.578-1.222-1.053-1.697c-0.473-0.473-1.088-0.849-1.826-1.118
				c-0.732-0.264-1.607-0.398-2.603-0.398c-1.074,0-2.023,0.19-2.822,0.567c-0.798,0.375-1.471,0.878-2.003,1.492
				s-0.937,1.334-1.201,2.139c-0.264,0.799-0.397,1.637-0.397,2.491v1.566c0,1.855,0.476,3.342,1.413,4.417
				c0.945,1.085,2.302,1.636,4.027,1.636c0.922,0,1.68-0.162,2.254-0.483c0.39-0.217,0.721-0.481,0.988-0.789v0.77
				c0,0.587-0.066,1.064-0.198,1.417c-0.127,0.342-0.303,0.613-0.519,0.809c-0.218,0.194-0.479,0.326-0.774,0.397
				c-0.316,0.074-0.673,0.112-1.06,0.112c-0.638,0-1.137-0.034-1.481-0.103c-0.381-0.072-0.67-0.109-0.881-0.109
				c-0.558,0-0.983,0.14-1.268,0.411c-0.285,0.276-0.431,0.646-0.431,1.101c0,0.614,0.331,1.137,1.028,1.575
				c0.249,0.097,0.64,0.179,1.196,0.254c0.541,0.07,1.158,0.107,1.836,0.107c0.799,0,1.574-0.121,2.303-0.357
				c0.734-0.238,1.392-0.606,1.954-1.095c0.564-0.491,1.018-1.117,1.349-1.861c0.331-0.745,0.499-1.639,0.499-2.658v-8.524
				C176.968,37.388,176.855,36.691,176.637,36.05z M170.014,36.459c0.336-0.169,0.721-0.253,1.142-0.253
				c0.737,0,1.311,0.152,1.699,0.454c0.376,0.293,0.56,0.735,0.56,1.353v3.311c-0.033,0.856-0.287,1.463-0.774,1.854
				c-0.502,0.402-1.083,0.598-1.776,0.598c-1.699,0-2.524-0.842-2.524-2.577v-1.779c0-0.447,0.071-0.873,0.212-1.26
				c0.14-0.385,0.335-0.727,0.581-1.015C169.375,36.859,169.672,36.629,170.014,36.459z"/>
		</g>
	</g>
</g>
</svg>
