<?xml version="1.0" encoding="utf-8"?>
<!-- Generator: Adobe Illustrator 15.0.0, SVG Export Plug-In . SVG Version: 6.00 Build 0)  -->
<!DOCTYPE svg PUBLIC "-//W3C//DTD SVG 1.1//EN" "http://www.w3.org/Graphics/SVG/1.1/DTD/svg11.dtd">
<svg version="1.1" id="Calque_1" xmlns="http://www.w3.org/2000/svg" xmlns:xlink="http://www.w3.org/1999/xlink" x="0px" y="0px"
	 width="200px" height="69px" viewBox="0 0 200 69" enable-background="new 0 0 200 69" xml:space="preserve">
<g>
	<g>
		<path fill="#FFFFFF" d="M31.96,20.108c0.819-0.503,5.232-2.849,12.354,0.091c7.325,3.022,11.87,0.397,12.434,0.04
			c-1.771-2.911-3.876-5.445-6.206-7.148c0.156-0.043,0.314-0.086,0.481-0.135c3.088-0.894,3.872-3.508,4.038-5.747
			c0.186-2.54,0.315-2.579,0.867-4.864c0.53-2.194-0.061-2.633-0.605-2.19c-0.293,0.238-2.846,0.828-4.36,2.008
			c-2.444,1.908-3.951,5.534-4.634,7.539c-0.013,0.031-0.105,0.31-0.136,0.406c-0.318,0.768-0.953,0.766-0.953,0.766v0
			c-0.308-0.034-0.616-0.051-0.927-0.051c-0.277,0-0.553,0.015-0.829,0.041c-0.006,0.001-0.009,0-0.016,0
			c-0.81,0.12-1.256-0.87-1.349-1.105c-0.947-2.72-3.494-8.082-9.22-9.524c0,0-1.04-0.796-0.723,0.551
			c0.302,1.287,0.925,2.588,0.787,4.481c-0.063,0.874-0.605,5.354,3.512,7.685c0.391,0.222,0.738,0.408,1.051,0.564
			C35.455,15.176,33.572,17.486,31.96,20.108z"/>
		<path fill="#FFFFFF" d="M58.992,61.077c-5.045-3.126-6.743-4.226-6.637-5.422c0,0,0.001-0.194,0.05-0.49
			c0.123-0.635,0.511-1.717,1.747-2.334c0.04-0.021,0.075-0.043,0.106-0.066c3.931-2.281,6.803-5.954,7.816-10.539
			c-1.021,2.532-8.58,4.5-17.761,4.5c-9.179,0-16.74-1.968-17.759-4.5c0.227,1.028,0.55,2.011,0.956,2.943
			c0.341,1.92,0.8,6.44-1.371,10.398c-1.913,3.485-11.355,8.237-25.369,5.51c0,0-0.562-0.394-0.732-0.07
			c-0.251,0.479,0.778,0.863,1.837,1.143c9.756,2.585,24.483,1.533,29.108-2.277c2.11-1.736,2.923-4.077,3.131-6.595l0.002,0.004
			c0,0,0.056-0.661,0.881-0.165c0.237,0.143,1.09,0.698,1.226,1.326c0.119,0.893,0.126,1.989-0.334,2.759
			c-0.66,1.098-0.667,1.256,0.201,1.877c0.534,0.381,2.711,1.981,5.741,3.802c0.007,0.005,0.011,0.01,0.02,0.014
			c0.641,0.386,1.531,1.331,1.531,1.331l0,0c1.365,1.578,4.334,4.755,5.625,4.157c0.61-0.282-0.026-1.555-0.026-1.555
			s1.015,1.317,1.56,0.869c0.416-0.343-0.242-1.656-0.242-1.656s0.885,0.77,1.414,0.484c0.644-0.347-0.096-2.365-5.167-5.447
			c-5.073-3.085-6.448-3.559-6.57-4.936c0,0-0.002-0.069,0.003-0.188c0.039-0.304,0.212-0.947,0.949-0.878
			c1.098,0.178,2.229,0.272,3.389,0.272c1.326,0,2.618-0.121,3.863-0.354l0.001,0.002c0,0,0.065-0.013,0.084-0.016
			c0.146-0.019,0.429-0.01,0.43,0.344c-0.046,0.447-0.169,0.897-0.432,1.291c-0.743,1.112-0.499,1.264,0.275,1.979
			c0.479,0.441,2.672,2.37,5.676,4.236c0.006,0.005,0.008,0.009,0.016,0.013c0.641,0.386,1.749,1.443,1.749,1.443l0,0
			c1.244,1.264,3.534,3.381,4.782,3.254c0.843-0.087,0.156-1.54,0.156-1.54s1.065,1.028,1.589,0.727
			c0.584-0.338-0.243-1.412-0.243-1.412s0.686,0.363,1.17,0.242S64.037,64.201,58.992,61.077z"/>
	</g>
	<g>
		<path fill="#FFFFFF" d="M53.355,25.754c-0.605,0-1.108,0.183-1.493,0.542c-0.39,0.364-0.587,0.785-0.587,1.25v8.231
			c0,1.105-0.195,1.919-0.582,2.421c-0.373,0.484-0.969,0.721-1.822,0.721c-0.874,0-1.468-0.234-1.82-0.716
			c-0.367-0.502-0.553-1.317-0.553-2.426v-8.263c0-0.562-0.256-1.022-0.742-1.331c-0.66-0.416-1.317-0.567-2.116-0.301
			c-0.244,0.081-0.473,0.188-0.683,0.316c-0.224,0.135-0.412,0.305-0.561,0.504c-0.165,0.221-0.249,0.462-0.249,0.715v8.359
			c0,1.106-0.186,1.923-0.553,2.425c-0.353,0.482-0.948,0.717-1.819,0.717c-0.874,0-1.475-0.235-1.837-0.719
			c-0.376-0.502-0.567-1.317-0.567-2.423v-8.231c0-0.464-0.198-0.885-0.588-1.25c-0.385-0.359-0.897-0.542-1.524-0.542
			c-0.645,0-1.177,0.181-1.581,0.536c-0.416,0.364-0.626,0.787-0.626,1.256v8.104c0,1.019,0.1,1.983,0.295,2.864
			c0.201,0.901,0.552,1.691,1.044,2.352c0.495,0.665,1.169,1.19,2.002,1.563c0.823,0.366,1.854,0.553,3.063,0.553
			c1.26,0,2.315-0.233,3.135-0.693c0.688-0.387,1.268-0.895,1.728-1.514c0.444,0.619,1.01,1.127,1.689,1.513
			c0.811,0.461,1.881,0.694,3.184,0.694c1.208,0,2.235-0.188,3.05-0.554c0.82-0.373,1.487-0.898,1.984-1.562
			c0.493-0.662,0.843-1.453,1.043-2.352c0.196-0.881,0.295-1.846,0.295-2.864v-8.104c0-0.466-0.205-0.888-0.607-1.253
			C54.561,25.935,54.022,25.754,53.355,25.754z"/>
		<path fill="#FFFFFF" d="M77.246,27.652c-0.572-0.594-1.313-1.065-2.205-1.4c-0.884-0.331-1.941-0.498-3.142-0.498
			c-1.295,0-2.446,0.23-3.42,0.684c-0.972,0.454-1.791,1.053-2.433,1.784c-0.64,0.728-1.132,1.557-1.463,2.461
			c-0.33,0.903-0.497,1.831-0.497,2.756v2.819c0,0.838,0.128,1.664,0.382,2.457c0.256,0.801,0.645,1.522,1.156,2.145
			c0.515,0.628,1.184,1.143,1.985,1.532c0.807,0.392,1.753,0.59,2.816,0.59c0.658,0,1.222-0.051,1.678-0.15
			c0.464-0.102,0.873-0.253,1.216-0.447s0.641-0.422,0.883-0.676c0.145-0.152,0.287-0.316,0.42-0.487v0.129
			c0,0.466,0.198,0.887,0.587,1.25c0.384,0.359,0.887,0.541,1.492,0.541c0.668,0,1.208-0.181,1.603-0.538
			c0.401-0.365,0.605-0.786,0.605-1.253v-8.968c0-0.944-0.134-1.826-0.398-2.621C78.243,28.955,77.816,28.245,77.246,27.652z
			 M70.512,30.096c0.409-0.186,0.875-0.278,1.388-0.278c0.886,0,1.573,0.197,2.042,0.589c0.453,0.379,0.682,1.065,0.682,2.04v3.01
			c0,0.576-0.099,1.085-0.294,1.515c-0.196,0.432-0.453,0.794-0.764,1.075c-0.312,0.283-0.674,0.501-1.075,0.648
			c-0.404,0.147-0.829,0.223-1.264,0.223c-0.785,0-1.421-0.246-1.947-0.753c-0.523-0.504-0.778-1.086-0.778-1.78v-3.074
			c0-0.474,0.085-0.923,0.252-1.334c0.166-0.413,0.402-0.789,0.7-1.115C69.744,30.541,70.099,30.283,70.512,30.096z"/>
		<path fill="#FFFFFF" d="M90.283,20.309c-0.645,0-1.177,0.181-1.583,0.536c-0.415,0.365-0.625,0.787-0.625,1.255v19.089
			c0,0.469,0.21,0.891,0.625,1.257c0.405,0.354,0.938,0.535,1.583,0.535c0.626,0,1.14-0.183,1.524-0.542
			c0.389-0.365,0.587-0.785,0.587-1.25V22.101c0-0.464-0.198-0.885-0.587-1.25C91.422,20.492,90.909,20.309,90.283,20.309z"/>
		<path fill="#FFFFFF" d="M103.958,20.309c-0.645,0-1.177,0.181-1.581,0.536c-0.416,0.365-0.626,0.787-0.626,1.255v19.089
			c0,0.469,0.21,0.891,0.626,1.257c0.404,0.354,0.937,0.535,1.581,0.535c0.628,0,1.14-0.183,1.525-0.542
			c0.389-0.365,0.587-0.785,0.587-1.25V22.101c0-0.464-0.198-0.885-0.587-1.25C105.098,20.492,104.586,20.309,103.958,20.309z"/>
		<path fill="#FFFFFF" d="M127.978,27.652c-0.571-0.594-1.312-1.065-2.205-1.4c-0.885-0.331-1.94-0.498-3.142-0.498
			c-1.294,0-2.445,0.23-3.42,0.684c-0.972,0.454-1.789,1.053-2.432,1.784c-0.639,0.727-1.133,1.555-1.464,2.461
			c-0.33,0.903-0.497,1.831-0.497,2.756v2.819c0,0.836,0.128,1.662,0.381,2.457c0.256,0.8,0.645,1.521,1.157,2.145
			c0.516,0.628,1.183,1.143,1.985,1.532c0.807,0.392,1.752,0.59,2.815,0.59c0.658,0,1.223-0.051,1.679-0.15
			c0.464-0.102,0.873-0.253,1.218-0.447c0.341-0.193,0.639-0.421,0.881-0.676c0.146-0.152,0.287-0.316,0.421-0.487v0.129
			c0,0.466,0.197,0.887,0.587,1.25c0.384,0.359,0.887,0.541,1.491,0.541c0.669,0,1.207-0.181,1.603-0.538
			c0.402-0.364,0.606-0.786,0.606-1.253v-8.968c0-0.944-0.134-1.826-0.398-2.621C128.975,28.957,128.55,28.247,127.978,27.652z
			 M121.243,30.096c0.41-0.186,0.876-0.278,1.388-0.278c0.887,0,1.574,0.197,2.041,0.589c0.455,0.379,0.684,1.064,0.684,2.04v3.01
			c0,0.575-0.099,1.084-0.294,1.515c-0.197,0.432-0.455,0.794-0.766,1.075c-0.312,0.283-0.674,0.501-1.074,0.648
			c-0.404,0.147-0.829,0.223-1.264,0.223c-0.783,0-1.421-0.246-1.947-0.753c-0.523-0.504-0.777-1.086-0.777-1.78v-3.074
			c0-0.474,0.084-0.923,0.252-1.334c0.166-0.413,0.402-0.789,0.698-1.114C120.476,30.541,120.832,30.282,121.243,30.096z"/>
		<path fill="#FFFFFF" d="M151.964,27.988c-0.581-0.703-1.327-1.258-2.218-1.649c-0.891-0.389-1.952-0.585-3.158-0.585
			c-0.848,0-1.621,0.155-2.295,0.457c-0.529,0.239-0.996,0.561-1.392,0.96v-5.071c0-0.464-0.197-0.885-0.586-1.25
			c-0.386-0.359-0.898-0.542-1.523-0.542c-0.646,0-1.18,0.181-1.584,0.536c-0.415,0.365-0.625,0.787-0.625,1.255v14.253
			c0,0.951,0.163,1.843,0.483,2.651c0.324,0.815,0.816,1.535,1.466,2.139c0.645,0.6,1.459,1.072,2.424,1.406
			c0.953,0.328,2.078,0.495,3.343,0.495c1.231,0,2.32-0.208,3.24-0.616c0.919-0.411,1.701-0.974,2.323-1.674
			c0.622-0.699,1.089-1.521,1.387-2.439c0.297-0.91,0.447-1.894,0.447-2.923v-1.857c0-1.111-0.146-2.146-0.429-3.079
			C152.979,29.517,152.542,28.687,151.964,27.988z M146.299,38.981c-0.985,0-1.817-0.21-2.472-0.627
			c-0.622-0.396-0.926-1.01-0.926-1.873v-3.673c0.041-1.041,0.345-1.806,0.907-2.273c0.574-0.477,1.304-0.718,2.17-0.718
			c1.017,0,1.815,0.312,2.438,0.953c0.617,0.636,0.928,1.588,0.928,2.829v1.921c0,1.054-0.281,1.907-0.84,2.532
			C147.947,38.679,147.227,38.981,146.299,38.981z"/>
		<path fill="#FFFFFF" d="M174.804,27.652c-0.574-0.594-1.315-1.065-2.205-1.4c-0.885-0.331-1.942-0.498-3.143-0.498
			c-1.296,0-2.447,0.23-3.421,0.684c-0.971,0.454-1.788,1.053-2.433,1.784c-0.639,0.727-1.13,1.555-1.462,2.461
			c-0.329,0.903-0.497,1.831-0.497,2.756v2.819c0,0.836,0.128,1.662,0.382,2.457c0.255,0.8,0.645,1.521,1.156,2.145
			c0.515,0.628,1.183,1.143,1.985,1.532c0.807,0.392,1.753,0.59,2.816,0.59c0.657,0,1.222-0.051,1.678-0.15
			c0.464-0.102,0.872-0.253,1.217-0.447c0.342-0.193,0.639-0.421,0.883-0.676c0.145-0.152,0.286-0.316,0.421-0.487v0.129
			c0,0.466,0.197,0.887,0.586,1.25c0.384,0.359,0.887,0.541,1.492,0.541c0.669,0,1.207-0.181,1.602-0.538
			c0.402-0.364,0.605-0.786,0.605-1.253v-8.968c0-0.944-0.133-1.826-0.398-2.621C175.8,28.957,175.375,28.247,174.804,27.652z
			 M168.069,30.096c0.407-0.186,0.875-0.278,1.387-0.278c0.887,0,1.572,0.197,2.042,0.589c0.452,0.379,0.684,1.064,0.684,2.04v3.01
			c0,0.575-0.101,1.084-0.297,1.515c-0.195,0.432-0.452,0.794-0.764,1.075c-0.312,0.283-0.674,0.501-1.074,0.648
			c-0.404,0.147-0.829,0.223-1.263,0.223c-0.786,0-1.423-0.246-1.948-0.753c-0.523-0.504-0.778-1.086-0.778-1.78v-3.074
			c0-0.474,0.086-0.923,0.253-1.334c0.166-0.413,0.4-0.789,0.698-1.114C167.302,30.541,167.657,30.282,168.069,30.096z"/>
		<path fill="#FFFFFF" d="M199.192,29.599c-0.271-0.785-0.696-1.474-1.271-2.048c-0.569-0.57-1.311-1.023-2.203-1.349
			c-0.883-0.318-1.938-0.48-3.14-0.48c-1.295,0-2.44,0.23-3.405,0.685c-0.961,0.453-1.772,1.059-2.415,1.801
			c-0.643,0.74-1.129,1.608-1.449,2.58c-0.318,0.965-0.479,1.975-0.479,3.004v1.889c0,2.238,0.573,4.031,1.704,5.329
			c1.14,1.308,2.775,1.972,4.859,1.972c1.111,0,2.024-0.195,2.717-0.582c0.472-0.262,0.87-0.581,1.192-0.952v0.927
			c0,0.71-0.08,1.285-0.236,1.71c-0.155,0.413-0.367,0.741-0.628,0.976c-0.263,0.234-0.576,0.396-0.934,0.48
			c-0.382,0.09-0.812,0.136-1.279,0.136c-0.77,0-1.369-0.041-1.786-0.123c-0.46-0.09-0.807-0.133-1.063-0.133
			c-0.672,0-1.187,0.167-1.527,0.496c-0.346,0.332-0.521,0.778-0.521,1.327c0,0.742,0.4,1.372,1.24,1.9
			c0.302,0.115,0.773,0.215,1.444,0.306c0.651,0.085,1.396,0.129,2.214,0.129c0.965,0,1.899-0.145,2.779-0.429
			c0.884-0.288,1.678-0.733,2.357-1.323c0.68-0.591,1.228-1.346,1.628-2.245c0.398-0.896,0.6-1.976,0.6-3.207v-10.28
			C199.591,31.212,199.457,30.372,199.192,29.599z M191.202,30.091c0.406-0.203,0.87-0.306,1.377-0.306
			c0.89,0,1.581,0.185,2.05,0.548c0.455,0.352,0.675,0.886,0.675,1.632v3.993c-0.039,1.034-0.345,1.765-0.934,2.238
			c-0.605,0.485-1.306,0.722-2.144,0.722c-2.049,0-3.045-1.018-3.045-3.109v-2.146c0-0.541,0.088-1.052,0.257-1.521
			c0.168-0.466,0.402-0.877,0.7-1.224C190.434,30.575,190.791,30.297,191.202,30.091z"/>
	</g>
</g>
</svg>
