<?xml version="1.0" encoding="utf-8"?>
<!-- Generator: Adobe Illustrator 15.0.0, SVG Export Plug-In . SVG Version: 6.00 Build 0)  -->
<!DOCTYPE svg PUBLIC "-//W3C//DTD SVG 1.1//EN" "http://www.w3.org/Graphics/SVG/1.1/DTD/svg11.dtd">
<svg version="1.1" id="Calque_1" xmlns="http://www.w3.org/2000/svg" xmlns:xlink="http://www.w3.org/1999/xlink" x="0px" y="0px"
	 width="200px" height="80px" viewBox="0 0 200 80" enable-background="new 0 0 200 80" xml:space="preserve">
<g>
	<rect width="200" height="79.776"/>
	<g>
		<g>
			<path fill="#FFFFFF" d="M38.01,28.183c0.679-0.417,4.338-2.361,10.241,0.076c6.073,2.506,9.84,0.329,10.307,0.034
				c-1.468-2.414-3.213-4.513-5.144-5.926c0.128-0.036,0.26-0.071,0.399-0.112c2.56-0.74,3.21-2.908,3.347-4.764
				c0.155-2.105,0.261-2.137,0.719-4.031c0.438-1.819-0.05-2.184-0.502-1.816c-0.242,0.198-2.359,0.687-3.614,1.666
				c-2.026,1.581-3.275,4.587-3.841,6.25c-0.011,0.024-0.087,0.256-0.112,0.336c-0.264,0.637-0.79,0.635-0.79,0.635l0,0
				c-0.254-0.028-0.51-0.042-0.769-0.042c-0.229,0-0.458,0.013-0.687,0.035c-0.005,0.001-0.008,0-0.013,0
				c-0.673,0.099-1.042-0.721-1.119-0.917c-0.785-2.254-2.896-6.7-7.642-7.896c0,0-0.862-0.66-0.599,0.457
				c0.249,1.067,0.767,2.146,0.651,3.714c-0.052,0.724-0.501,4.438,2.912,6.37c0.324,0.183,0.612,0.338,0.872,0.468
				C40.907,24.095,39.345,26.01,38.01,28.183z"/>
			<path fill="#FFFFFF" d="M60.417,62.144c-4.183-2.591-5.59-3.502-5.501-4.494c0,0,0.001-0.16,0.042-0.407
				c0.102-0.524,0.422-1.422,1.448-1.934c0.034-0.018,0.062-0.036,0.089-0.055c3.258-1.892,5.639-4.936,6.479-8.737
				c-0.846,2.1-7.112,3.731-14.724,3.731c-7.608,0-13.875-1.632-14.721-3.731c0.188,0.854,0.456,1.667,0.792,2.44
				c0.283,1.592,0.663,5.339-1.137,8.619c-1.585,2.89-9.413,6.829-21.029,4.567c0,0-0.466-0.324-0.607-0.058
				c-0.208,0.396,0.646,0.716,1.523,0.947c8.088,2.143,20.296,1.271,24.129-1.888c1.748-1.44,2.423-3.38,2.595-5.468l0.001,0.004
				c0,0,0.047-0.547,0.731-0.136c0.196,0.117,0.902,0.578,1.016,1.098c0.099,0.741,0.105,1.65-0.277,2.287
				c-0.548,0.911-0.554,1.042,0.167,1.557c0.442,0.315,2.247,1.642,4.758,3.15c0.007,0.005,0.01,0.009,0.017,0.013
				c0.532,0.319,1.27,1.103,1.27,1.103l0,0c1.131,1.31,3.591,3.942,4.663,3.445c0.505-0.233-0.022-1.288-0.022-1.288
				s0.841,1.094,1.293,0.72c0.344-0.283-0.201-1.372-0.201-1.372s0.734,0.638,1.171,0.402c0.535-0.289-0.079-1.961-4.283-4.517
				c-4.206-2.557-5.346-2.949-5.446-4.09c0,0-0.002-0.059,0.002-0.156c0.033-0.252,0.175-0.785,0.787-0.728
				c0.91,0.146,1.848,0.226,2.808,0.226c1.101,0,2.17-0.101,3.203-0.294v0.002c0,0,0.054-0.011,0.07-0.014
				c0.12-0.015,0.355-0.007,0.356,0.286c-0.039,0.37-0.141,0.743-0.358,1.069c-0.616,0.922-0.414,1.048,0.229,1.64
				c0.397,0.366,2.215,1.966,4.705,3.513c0.005,0.003,0.007,0.007,0.013,0.01c0.531,0.319,1.449,1.197,1.449,1.197l0,0
				c1.032,1.047,2.93,2.802,3.964,2.696c0.699-0.071,0.13-1.275,0.13-1.275s0.883,0.853,1.316,0.602
				c0.485-0.28-0.201-1.171-0.201-1.171s0.569,0.301,0.97,0.201C64.499,65.757,64.6,64.733,60.417,62.144z"/>
		</g>
		<g>
			<path fill="#FFFFFF" d="M55.745,32.863c-0.501,0-0.918,0.15-1.237,0.449c-0.323,0.301-0.487,0.65-0.487,1.036v6.823
				c0,0.916-0.161,1.59-0.481,2.006c-0.309,0.402-0.804,0.597-1.511,0.597c-0.724,0-1.217-0.193-1.508-0.593
				c-0.304-0.415-0.458-1.092-0.458-2.01v-6.851c0-0.466-0.213-0.848-0.616-1.103c-0.547-0.345-1.092-0.47-1.755-0.249
				c-0.202,0.068-0.392,0.155-0.565,0.262c-0.186,0.112-0.341,0.253-0.465,0.419c-0.137,0.183-0.207,0.382-0.207,0.593v6.93
				c0,0.917-0.154,1.594-0.458,2.01c-0.292,0.399-0.786,0.593-1.508,0.593c-0.725,0-1.222-0.193-1.522-0.595
				c-0.312-0.416-0.471-1.092-0.471-2.008v-6.823c0-0.386-0.163-0.735-0.486-1.036c-0.319-0.299-0.745-0.449-1.264-0.449
				c-0.535,0-0.976,0.149-1.311,0.444c-0.345,0.301-0.519,0.652-0.519,1.041v6.717c0,0.845,0.083,1.644,0.244,2.375
				c0.167,0.746,0.458,1.402,0.865,1.949c0.412,0.551,0.97,0.986,1.661,1.296c0.683,0.304,1.537,0.458,2.539,0.458
				c1.044,0,1.918-0.193,2.599-0.575c0.57-0.32,1.051-0.741,1.432-1.254c0.369,0.513,0.837,0.934,1.4,1.254
				c0.672,0.382,1.56,0.575,2.64,0.575c1.002,0,1.853-0.154,2.527-0.459c0.681-0.309,1.233-0.745,1.646-1.295
				c0.408-0.549,0.699-1.205,0.864-1.949c0.163-0.731,0.246-1.53,0.246-2.375v-6.717c0-0.387-0.17-0.737-0.503-1.039
				C56.745,33.013,56.298,32.863,55.745,32.863z"/>
			<path fill="#FFFFFF" d="M75.549,34.436c-0.474-0.492-1.088-0.882-1.827-1.16c-0.733-0.274-1.609-0.413-2.604-0.413
				c-1.074,0-2.027,0.19-2.835,0.566c-0.806,0.375-1.484,0.874-2.016,1.479c-0.531,0.603-0.938,1.29-1.212,2.04
				c-0.274,0.749-0.413,1.518-0.413,2.284v2.337c0,0.694,0.106,1.379,0.316,2.036c0.213,0.664,0.535,1.263,0.958,1.778
				c0.427,0.52,0.981,0.947,1.646,1.271c0.668,0.324,1.454,0.488,2.334,0.488c0.545,0,1.013-0.042,1.392-0.125
				c0.384-0.084,0.723-0.209,1.008-0.37c0.285-0.162,0.531-0.35,0.731-0.561c0.122-0.126,0.238-0.262,0.349-0.404v0.107
				c0,0.387,0.163,0.735,0.486,1.035c0.318,0.299,0.735,0.449,1.237,0.449c0.553,0,1-0.149,1.328-0.446
				c0.333-0.302,0.502-0.651,0.502-1.038v-7.435c0-0.782-0.111-1.514-0.331-2.172C76.376,35.517,76.022,34.928,75.549,34.436z
				 M69.967,36.462c0.339-0.154,0.726-0.231,1.15-0.231c0.735,0,1.304,0.165,1.692,0.489c0.376,0.314,0.566,0.883,0.566,1.69v2.496
				c0,0.477-0.082,0.899-0.245,1.254c-0.163,0.358-0.376,0.659-0.633,0.893c-0.259,0.234-0.56,0.415-0.891,0.537
				c-0.335,0.122-0.688,0.184-1.047,0.184c-0.651,0-1.179-0.203-1.614-0.623c-0.434-0.418-0.644-0.9-0.644-1.476v-2.548
				c0-0.393,0.07-0.766,0.208-1.106c0.138-0.344,0.333-0.655,0.579-0.926C69.331,36.831,69.625,36.617,69.967,36.462z"/>
			<path fill="#FFFFFF" d="M86.356,28.35c-0.534,0-0.975,0.149-1.311,0.444c-0.345,0.303-0.519,0.652-0.519,1.041v15.824
				c0,0.388,0.174,0.738,0.519,1.041c0.336,0.295,0.777,0.444,1.311,0.444c0.52,0,0.946-0.15,1.264-0.449
				c0.323-0.303,0.487-0.651,0.487-1.036V29.834c0-0.385-0.164-0.733-0.487-1.035C87.302,28.5,86.876,28.35,86.356,28.35z"/>
			<path fill="#FFFFFF" d="M97.693,28.35c-0.535,0-0.977,0.149-1.312,0.444c-0.344,0.303-0.518,0.652-0.518,1.041v15.824
				c0,0.388,0.174,0.738,0.518,1.041c0.335,0.295,0.777,0.444,1.312,0.444c0.519,0,0.944-0.15,1.264-0.449
				c0.323-0.303,0.486-0.651,0.486-1.036V29.834c0-0.385-0.164-0.733-0.486-1.035C98.638,28.5,98.212,28.35,97.693,28.35z"/>
			<path fill="#FFFFFF" d="M117.604,34.436c-0.475-0.492-1.089-0.882-1.827-1.16c-0.733-0.274-1.609-0.413-2.605-0.413
				c-1.073,0-2.026,0.19-2.834,0.566c-0.807,0.375-1.483,0.873-2.017,1.479c-0.53,0.603-0.938,1.289-1.213,2.04
				c-0.273,0.749-0.412,1.518-0.412,2.284v2.337c0,0.692,0.106,1.378,0.315,2.036c0.212,0.663,0.534,1.262,0.959,1.778
				c0.428,0.52,0.981,0.947,1.646,1.271c0.669,0.324,1.454,0.488,2.335,0.488c0.545,0,1.014-0.042,1.392-0.125
				c0.384-0.084,0.723-0.209,1.009-0.37c0.283-0.161,0.528-0.349,0.73-0.561c0.121-0.126,0.237-0.262,0.349-0.404v0.107
				c0,0.387,0.164,0.735,0.486,1.035c0.318,0.299,0.735,0.449,1.237,0.449c0.554,0,1.001-0.149,1.328-0.446
				c0.333-0.301,0.502-0.65,0.502-1.038v-7.435c0-0.782-0.111-1.514-0.331-2.172C118.43,35.518,118.077,34.93,117.604,34.436z
				 M112.021,36.462c0.339-0.154,0.727-0.231,1.15-0.231c0.735,0,1.305,0.165,1.692,0.489c0.377,0.313,0.566,0.883,0.566,1.69v2.496
				c0,0.476-0.082,0.898-0.244,1.254c-0.162,0.358-0.376,0.659-0.634,0.893c-0.259,0.234-0.559,0.415-0.891,0.537
				c-0.335,0.122-0.688,0.184-1.048,0.184c-0.649,0-1.178-0.203-1.614-0.623c-0.433-0.418-0.644-0.9-0.644-1.476v-2.548
				c0-0.393,0.069-0.766,0.209-1.106c0.138-0.343,0.332-0.654,0.579-0.925C111.386,36.831,111.68,36.617,112.021,36.462z"/>
			<path fill="#FFFFFF" d="M137.487,34.715c-0.481-0.583-1.1-1.043-1.84-1.367c-0.736-0.322-1.617-0.484-2.617-0.484
				c-0.703,0-1.343,0.128-1.902,0.379c-0.438,0.198-0.826,0.464-1.152,0.795v-4.203c0-0.385-0.164-0.734-0.487-1.035
				c-0.318-0.299-0.744-0.449-1.264-0.449c-0.534,0-0.976,0.149-1.311,0.444c-0.345,0.303-0.52,0.652-0.52,1.041v11.815
				c0,0.788,0.135,1.527,0.402,2.198c0.268,0.676,0.676,1.271,1.213,1.772c0.535,0.497,1.211,0.889,2.01,1.165
				c0.79,0.272,1.723,0.411,2.771,0.411c1.02,0,1.923-0.172,2.687-0.511c0.761-0.341,1.409-0.808,1.925-1.388s0.903-1.26,1.15-2.022
				c0.245-0.754,0.37-1.569,0.37-2.423v-1.54c0-0.921-0.12-1.779-0.355-2.551C138.329,35.982,137.966,35.294,137.487,34.715z
				 M132.791,43.828c-0.816,0-1.507-0.175-2.05-0.521c-0.515-0.329-0.766-0.836-0.766-1.552v-3.045
				c0.032-0.863,0.285-1.497,0.75-1.884c0.477-0.395,1.082-0.596,1.8-0.596c0.843,0,1.505,0.259,2.021,0.791
				c0.511,0.527,0.77,1.316,0.77,2.344v1.593c0,0.874-0.234,1.581-0.697,2.099C134.157,43.577,133.56,43.828,132.791,43.828z"/>
			<path fill="#FFFFFF" d="M156.419,34.436c-0.475-0.492-1.089-0.882-1.827-1.16c-0.733-0.274-1.609-0.413-2.605-0.413
				c-1.073,0-2.026,0.19-2.834,0.566c-0.806,0.375-1.483,0.873-2.017,1.479c-0.53,0.603-0.938,1.289-1.213,2.04
				c-0.273,0.749-0.412,1.518-0.412,2.284v2.337c0,0.692,0.106,1.378,0.315,2.036c0.212,0.663,0.534,1.262,0.959,1.778
				c0.428,0.52,0.98,0.947,1.646,1.271c0.668,0.324,1.453,0.488,2.334,0.488c0.545,0,1.014-0.042,1.392-0.125
				c0.384-0.084,0.723-0.209,1.009-0.37c0.283-0.161,0.528-0.349,0.73-0.561c0.121-0.126,0.237-0.262,0.349-0.404v0.107
				c0,0.387,0.164,0.735,0.486,1.035c0.318,0.299,0.735,0.449,1.237,0.449c0.554,0,1.001-0.149,1.328-0.446
				c0.333-0.301,0.502-0.65,0.502-1.038v-7.435c0-0.782-0.111-1.514-0.331-2.172C157.245,35.518,156.893,34.93,156.419,34.436z
				 M150.836,36.462c0.339-0.154,0.727-0.231,1.15-0.231c0.735,0,1.305,0.165,1.693,0.489c0.376,0.313,0.565,0.883,0.565,1.69v2.496
				c0,0.476-0.082,0.898-0.244,1.254c-0.162,0.358-0.376,0.659-0.634,0.893c-0.259,0.234-0.559,0.415-0.891,0.537
				c-0.335,0.122-0.688,0.184-1.047,0.184c-0.65,0-1.179-0.203-1.615-0.623c-0.433-0.418-0.644-0.9-0.644-1.476v-2.548
				c0-0.393,0.069-0.766,0.209-1.106c0.138-0.343,0.332-0.654,0.579-0.925C150.201,36.831,150.495,36.617,150.836,36.462z"/>
			<path fill="#FFFFFF" d="M176.636,36.051c-0.224-0.651-0.577-1.223-1.052-1.698c-0.473-0.472-1.087-0.848-1.826-1.117
				c-0.732-0.265-1.607-0.399-2.603-0.399c-1.074,0-2.023,0.191-2.822,0.567c-0.797,0.375-1.471,0.878-2.003,1.493
				c-0.532,0.614-0.936,1.333-1.201,2.139c-0.264,0.799-0.397,1.637-0.397,2.49v1.566c0,1.855,0.476,3.341,1.412,4.418
				c0.946,1.084,2.303,1.634,4.029,1.634c0.921,0,1.678-0.161,2.252-0.481c0.392-0.218,0.722-0.482,0.988-0.79v0.77
				c0,0.587-0.065,1.064-0.197,1.416c-0.128,0.343-0.302,0.614-0.519,0.81c-0.218,0.193-0.478,0.326-0.773,0.397
				c-0.317,0.074-0.675,0.113-1.061,0.113c-0.638,0-1.136-0.035-1.481-0.103c-0.381-0.074-0.669-0.11-0.882-0.11
				c-0.557,0-0.983,0.139-1.266,0.411c-0.287,0.275-0.432,0.646-0.432,1.1c0,0.615,0.332,1.138,1.028,1.576
				c0.248,0.096,0.641,0.178,1.196,0.253c0.54,0.071,1.158,0.107,1.836,0.107c0.799,0,1.574-0.12,2.303-0.356
				c0.733-0.238,1.392-0.607,1.954-1.096c0.564-0.49,1.019-1.116,1.35-1.86c0.33-0.745,0.497-1.639,0.497-2.658v-8.523
				C176.967,37.387,176.855,36.691,176.636,36.051z M170.013,36.458c0.337-0.168,0.722-0.253,1.143-0.253
				c0.738,0,1.311,0.153,1.699,0.454c0.376,0.292,0.559,0.734,0.559,1.353v3.31c-0.032,0.856-0.285,1.464-0.774,1.855
				c-0.501,0.403-1.081,0.598-1.775,0.598c-1.698,0-2.523-0.843-2.523-2.576v-1.779c0-0.448,0.07-0.873,0.211-1.261
				c0.14-0.386,0.334-0.727,0.581-1.015C169.376,36.859,169.672,36.629,170.013,36.458z"/>
		</g>
	</g>
</g>
</svg>
