<?xml version="1.0" encoding="utf-8"?>
<!-- Generator: Adobe Illustrator 15.0.0, SVG Export Plug-In . SVG Version: 6.00 Build 0)  -->
<!DOCTYPE svg PUBLIC "-//W3C//DTD SVG 1.1//EN" "http://www.w3.org/Graphics/SVG/1.1/DTD/svg11.dtd">
<svg version="1.1" id="Calque_1" xmlns="http://www.w3.org/2000/svg" xmlns:xlink="http://www.w3.org/1999/xlink" x="0px" y="0px"
	 width="200px" height="80px" viewBox="0 0 200 80" enable-background="new 0 0 200 80" xml:space="preserve">
<g>
	<rect fill="none" width="200" height="79.777"/>
	<g>
		<g>
			<path fill="#FFFFFF" d="M38.009,28.183c0.679-0.417,4.338-2.362,10.242,0.075c6.072,2.506,9.839,0.329,10.307,0.033
				c-1.468-2.413-3.213-4.513-5.144-5.925c0.128-0.035,0.26-0.071,0.399-0.112c2.559-0.74,3.209-2.907,3.347-4.763
				c0.154-2.106,0.262-2.138,0.719-4.032c0.438-1.819-0.051-2.183-0.501-1.816c-0.244,0.197-2.359,0.687-3.614,1.665
				c-2.026,1.582-3.275,4.587-3.841,6.25c-0.011,0.025-0.087,0.256-0.113,0.336c-0.264,0.637-0.79,0.635-0.79,0.635v0.001
				c-0.254-0.028-0.511-0.043-0.768-0.043c-0.23,0-0.458,0.013-0.687,0.034c-0.005,0.001-0.008,0-0.014,0.001
				c-0.671,0.098-1.041-0.722-1.119-0.917c-0.784-2.254-2.896-6.699-7.642-7.896c0,0-0.862-0.66-0.599,0.457
				c0.25,1.067,0.767,2.146,0.652,3.714c-0.052,0.725-0.502,4.438,2.911,6.371c0.324,0.183,0.613,0.338,0.872,0.468
				C40.906,24.095,39.345,26.01,38.009,28.183z"/>
			<path fill="#FFFFFF" d="M60.417,62.144c-4.182-2.592-5.589-3.501-5.501-4.493c0,0,0.001-0.161,0.042-0.407
				c0.102-0.525,0.422-1.424,1.448-1.936c0.034-0.015,0.062-0.034,0.088-0.055c3.259-1.89,5.639-4.935,6.479-8.735
				c-0.846,2.099-7.112,3.73-14.723,3.73c-7.609,0-13.876-1.632-14.722-3.73c0.188,0.854,0.456,1.666,0.792,2.438
				c0.283,1.593,0.664,5.339-1.136,8.62c-1.586,2.89-9.414,6.829-21.03,4.567c0,0-0.466-0.325-0.607-0.058
				c-0.208,0.396,0.645,0.717,1.523,0.947c8.088,2.142,20.295,1.271,24.128-1.887c1.749-1.44,2.424-3.38,2.596-5.469l0,0.003
				c0,0,0.047-0.545,0.731-0.135c0.196,0.118,0.902,0.578,1.015,1.099c0.099,0.74,0.105,1.65-0.277,2.287
				c-0.547,0.909-0.553,1.041,0.167,1.557c0.442,0.314,2.247,1.642,4.759,3.15c0.007,0.004,0.009,0.007,0.016,0.012
				c0.531,0.32,1.27,1.104,1.27,1.104l0,0c1.131,1.309,3.592,3.941,4.663,3.445c0.505-0.234-0.021-1.288-0.021-1.288
				s0.841,1.092,1.293,0.721c0.343-0.284-0.201-1.372-0.201-1.372s0.734,0.636,1.171,0.4c0.535-0.288-0.079-1.961-4.283-4.517
				c-4.206-2.558-5.346-2.949-5.446-4.09c0,0-0.001-0.059,0.002-0.155c0.032-0.252,0.176-0.785,0.787-0.729
				c0.91,0.147,1.849,0.227,2.809,0.227c1.099,0,2.17-0.102,3.202-0.293l0.001,0.002c0,0,0.053-0.013,0.069-0.014
				c0.121-0.016,0.355-0.007,0.356,0.285c-0.038,0.37-0.14,0.744-0.358,1.069c-0.616,0.922-0.413,1.049,0.229,1.641
				c0.396,0.366,2.214,1.964,4.704,3.512c0.005,0.004,0.007,0.007,0.013,0.011c0.531,0.319,1.45,1.197,1.45,1.197v-0.002
				c1.032,1.049,2.93,2.804,3.964,2.697c0.699-0.071,0.129-1.275,0.129-1.275s0.883,0.852,1.317,0.602
				c0.485-0.28-0.201-1.17-0.201-1.17s0.568,0.3,0.97,0.2C64.5,65.757,64.6,64.733,60.417,62.144z"/>
		</g>
		<g>
			<path fill="#FFFFFF" d="M55.744,32.863c-0.501,0-0.918,0.15-1.237,0.449c-0.323,0.302-0.486,0.65-0.486,1.036v6.824
				c0,0.915-0.162,1.591-0.482,2.006c-0.31,0.402-0.804,0.598-1.511,0.598c-0.724,0-1.217-0.193-1.508-0.592
				c-0.305-0.418-0.458-1.094-0.458-2.012v-6.85c0-0.467-0.213-0.849-0.616-1.104c-0.547-0.345-1.092-0.47-1.754-0.25
				c-0.203,0.067-0.393,0.155-0.566,0.262c-0.185,0.113-0.341,0.254-0.465,0.418c-0.137,0.184-0.207,0.383-0.207,0.594v6.93
				c0,0.916-0.154,1.594-0.458,2.01c-0.293,0.4-0.786,0.594-1.509,0.594c-0.724,0-1.222-0.195-1.522-0.596
				c-0.312-0.416-0.47-1.092-0.47-2.008v-6.824c0-0.386-0.164-0.734-0.487-1.036c-0.32-0.299-0.745-0.449-1.264-0.449
				c-0.535,0-0.976,0.15-1.311,0.444c-0.344,0.302-0.519,0.653-0.519,1.041v6.717c0,0.845,0.083,1.644,0.244,2.374
				c0.167,0.748,0.458,1.403,0.865,1.95c0.411,0.551,0.969,0.987,1.66,1.295c0.683,0.305,1.537,0.459,2.539,0.459
				c1.043,0,1.918-0.193,2.599-0.575c0.57-0.319,1.051-0.74,1.433-1.254c0.368,0.514,0.837,0.935,1.4,1.254
				c0.671,0.382,1.559,0.575,2.639,0.575c1.001,0,1.853-0.154,2.527-0.459c0.68-0.308,1.233-0.744,1.646-1.295
				c0.408-0.549,0.699-1.204,0.864-1.95c0.163-0.73,0.245-1.529,0.245-2.374v-6.717c0-0.387-0.169-0.736-0.503-1.039
				C56.745,33.013,56.298,32.863,55.744,32.863z"/>
			<path fill="#FFFFFF" d="M75.549,34.436c-0.474-0.493-1.089-0.882-1.827-1.16c-0.733-0.274-1.61-0.413-2.605-0.413
				c-1.073,0-2.027,0.191-2.834,0.566c-0.807,0.375-1.485,0.873-2.017,1.479c-0.53,0.604-0.938,1.291-1.212,2.04
				c-0.274,0.75-0.413,1.519-0.413,2.286v2.337c0,0.694,0.107,1.38,0.316,2.037c0.212,0.664,0.535,1.263,0.958,1.777
				c0.428,0.52,0.981,0.947,1.646,1.271c0.668,0.324,1.454,0.488,2.334,0.488c0.546,0,1.014-0.041,1.392-0.125
				c0.384-0.084,0.724-0.209,1.008-0.37c0.285-0.16,0.531-0.351,0.732-0.561c0.12-0.127,0.237-0.262,0.348-0.404v0.108
				c0,0.385,0.163,0.733,0.486,1.035c0.318,0.297,0.735,0.449,1.237,0.449c0.554,0,1.001-0.15,1.328-0.446
				c0.333-0.303,0.503-0.651,0.503-1.038v-7.435c0-0.783-0.111-1.514-0.331-2.172C76.375,35.517,76.022,34.928,75.549,34.436z
				 M69.966,36.462c0.34-0.152,0.727-0.231,1.15-0.231c0.735,0,1.305,0.165,1.693,0.489c0.375,0.315,0.566,0.883,0.566,1.69v2.496
				c0,0.478-0.083,0.899-0.245,1.256c-0.163,0.359-0.376,0.658-0.634,0.891c-0.258,0.236-0.559,0.416-0.892,0.537
				c-0.334,0.124-0.687,0.186-1.047,0.186c-0.651,0-1.179-0.204-1.615-0.625c-0.433-0.415-0.644-0.899-0.644-1.475v-2.548
				c0-0.394,0.071-0.765,0.208-1.105c0.139-0.344,0.334-0.655,0.58-0.925C69.33,36.83,69.625,36.618,69.966,36.462z"/>
			<path fill="#FFFFFF" d="M86.356,28.35c-0.535,0-0.976,0.15-1.312,0.445c-0.344,0.302-0.518,0.653-0.518,1.04v15.824
				c0,0.389,0.174,0.739,0.518,1.042c0.336,0.294,0.777,0.443,1.312,0.443c0.519,0,0.945-0.15,1.264-0.448
				c0.322-0.303,0.487-0.652,0.487-1.037V29.834c0-0.385-0.165-0.733-0.487-1.036C87.301,28.501,86.875,28.35,86.356,28.35z"/>
			<path fill="#FFFFFF" d="M97.692,28.35c-0.534,0-0.975,0.15-1.311,0.445c-0.344,0.302-0.519,0.653-0.519,1.04v15.824
				c0,0.389,0.174,0.739,0.519,1.042c0.336,0.294,0.777,0.443,1.311,0.443c0.52,0,0.945-0.15,1.264-0.448
				c0.323-0.303,0.487-0.652,0.487-1.037V29.834c0-0.385-0.164-0.733-0.487-1.036C98.638,28.501,98.212,28.35,97.692,28.35z"/>
			<path fill="#FFFFFF" d="M117.604,34.436c-0.475-0.493-1.089-0.882-1.827-1.16c-0.733-0.274-1.609-0.413-2.605-0.413
				c-1.073,0-2.027,0.191-2.834,0.566c-0.806,0.375-1.484,0.873-2.018,1.479c-0.529,0.603-0.938,1.291-1.212,2.04
				c-0.273,0.75-0.413,1.519-0.413,2.286v2.337c0,0.692,0.107,1.379,0.316,2.037c0.212,0.662,0.535,1.261,0.959,1.777
				c0.428,0.52,0.981,0.947,1.646,1.271c0.669,0.324,1.454,0.488,2.334,0.488c0.546,0,1.014-0.041,1.392-0.125
				c0.385-0.084,0.724-0.209,1.009-0.37c0.284-0.16,0.53-0.349,0.732-0.561c0.119-0.127,0.236-0.262,0.348-0.404v0.108
				c0,0.385,0.163,0.733,0.487,1.035c0.317,0.297,0.734,0.449,1.236,0.449c0.554,0,1.001-0.15,1.327-0.446
				c0.334-0.303,0.503-0.651,0.503-1.038v-7.435c0-0.783-0.111-1.514-0.331-2.172C118.431,35.518,118.077,34.93,117.604,34.436z
				 M112.021,36.462c0.339-0.152,0.726-0.231,1.149-0.231c0.734,0,1.305,0.165,1.692,0.489c0.376,0.315,0.566,0.883,0.566,1.69
				v2.496c0,0.478-0.082,0.898-0.244,1.256c-0.163,0.359-0.377,0.658-0.634,0.891c-0.259,0.236-0.559,0.416-0.892,0.537
				c-0.334,0.124-0.687,0.186-1.047,0.186c-0.65,0-1.178-0.204-1.614-0.625c-0.434-0.415-0.645-0.899-0.645-1.475v-2.548
				c0-0.394,0.071-0.765,0.209-1.105c0.139-0.344,0.333-0.655,0.579-0.925C111.385,36.83,111.681,36.618,112.021,36.462z"/>
			<path fill="#FFFFFF" d="M137.487,34.715c-0.481-0.583-1.101-1.043-1.84-1.367c-0.736-0.322-1.617-0.485-2.617-0.485
				c-0.703,0-1.344,0.127-1.902,0.379c-0.439,0.198-0.826,0.464-1.152,0.795v-4.203c0-0.385-0.164-0.734-0.487-1.036
				c-0.319-0.297-0.744-0.449-1.264-0.449c-0.534,0-0.976,0.15-1.312,0.445c-0.344,0.302-0.519,0.653-0.519,1.04V41.65
				c0,0.787,0.136,1.527,0.401,2.198c0.268,0.674,0.677,1.271,1.214,1.772c0.535,0.496,1.21,0.89,2.01,1.165
				c0.79,0.271,1.722,0.41,2.771,0.41c1.02,0,1.923-0.173,2.686-0.512c0.763-0.34,1.41-0.806,1.926-1.387
				c0.516-0.58,0.902-1.26,1.15-2.022c0.245-0.754,0.369-1.568,0.369-2.422v-1.54c0-0.922-0.119-1.779-0.354-2.552
				C138.328,35.983,137.966,35.294,137.487,34.715z M132.791,43.828c-0.816,0-1.507-0.175-2.049-0.521
				c-0.517-0.328-0.767-0.836-0.767-1.553v-3.043c0.032-0.864,0.284-1.497,0.751-1.883c0.476-0.397,1.081-0.597,1.8-0.597
				c0.842,0,1.503,0.26,2.019,0.791c0.512,0.528,0.771,1.317,0.771,2.345v1.593c0,0.874-0.234,1.581-0.698,2.099
				C134.157,43.576,133.56,43.828,132.791,43.828z"/>
			<path fill="#FFFFFF" d="M156.419,34.436c-0.475-0.493-1.089-0.882-1.827-1.16c-0.733-0.274-1.609-0.413-2.604-0.413
				c-1.074,0-2.028,0.191-2.836,0.566c-0.805,0.375-1.483,0.873-2.016,1.479c-0.529,0.603-0.938,1.291-1.213,2.04
				c-0.273,0.75-0.412,1.519-0.412,2.286v2.337c0,0.692,0.105,1.379,0.316,2.037c0.211,0.662,0.533,1.261,0.959,1.777
				c0.427,0.52,0.98,0.947,1.646,1.271c0.668,0.324,1.453,0.488,2.334,0.488c0.545,0,1.014-0.041,1.392-0.125
				c0.384-0.084,0.723-0.209,1.009-0.37c0.283-0.16,0.529-0.349,0.73-0.561c0.121-0.127,0.237-0.262,0.349-0.404v0.108
				c0,0.385,0.164,0.733,0.486,1.035c0.319,0.297,0.735,0.449,1.238,0.449c0.553,0,0.999-0.15,1.327-0.446
				c0.333-0.303,0.502-0.651,0.502-1.038v-7.435c0-0.783-0.111-1.514-0.33-2.172C157.246,35.518,156.893,34.93,156.419,34.436z
				 M150.837,36.462c0.338-0.152,0.726-0.231,1.15-0.231c0.734,0,1.304,0.165,1.692,0.489c0.375,0.315,0.565,0.883,0.565,1.69v2.496
				c0,0.478-0.082,0.898-0.244,1.256c-0.163,0.359-0.376,0.658-0.634,0.891c-0.259,0.236-0.559,0.416-0.891,0.537
				c-0.335,0.124-0.688,0.186-1.047,0.186c-0.651,0-1.179-0.204-1.615-0.625c-0.434-0.415-0.645-0.899-0.645-1.475v-2.548
				c0-0.394,0.07-0.765,0.209-1.105c0.138-0.344,0.333-0.655,0.579-0.925C150.2,36.83,150.496,36.618,150.837,36.462z"/>
			<path fill="#FFFFFF" d="M176.636,36.05c-0.223-0.65-0.577-1.221-1.052-1.696c-0.473-0.473-1.088-0.849-1.826-1.118
				c-0.731-0.264-1.607-0.398-2.603-0.398c-1.074,0-2.023,0.19-2.822,0.567c-0.797,0.375-1.472,0.877-2.003,1.494
				c-0.532,0.613-0.937,1.333-1.201,2.138c-0.264,0.799-0.396,1.637-0.396,2.491v1.567c0,1.854,0.475,3.341,1.412,4.417
				c0.945,1.084,2.301,1.634,4.028,1.634c0.921,0,1.679-0.161,2.253-0.481c0.39-0.217,0.721-0.482,0.987-0.79v0.769
				c0,0.588-0.065,1.065-0.196,1.418c-0.129,0.342-0.303,0.614-0.521,0.809c-0.217,0.193-0.477,0.327-0.772,0.397
				c-0.317,0.075-0.675,0.112-1.061,0.112c-0.638,0-1.137-0.034-1.481-0.103c-0.381-0.073-0.669-0.109-0.882-0.109
				c-0.557,0-0.982,0.139-1.267,0.411c-0.285,0.275-0.431,0.646-0.431,1.1c0,0.616,0.332,1.138,1.028,1.575
				c0.249,0.098,0.641,0.18,1.195,0.253c0.542,0.072,1.159,0.108,1.837,0.108c0.799,0,1.574-0.12,2.303-0.356
				c0.734-0.237,1.392-0.606,1.955-1.095c0.563-0.49,1.018-1.116,1.349-1.86c0.33-0.744,0.497-1.64,0.497-2.66v-8.522
				C176.967,37.388,176.856,36.691,176.636,36.05z M170.014,36.458c0.336-0.167,0.72-0.253,1.142-0.253
				c0.737,0,1.311,0.152,1.699,0.455c0.376,0.291,0.559,0.734,0.559,1.351v3.311c-0.032,0.856-0.285,1.462-0.773,1.855
				c-0.502,0.402-1.082,0.598-1.776,0.598c-1.698,0-2.524-0.844-2.524-2.576V39.42c0-0.448,0.072-0.873,0.212-1.261
				c0.14-0.387,0.335-0.727,0.581-1.015C169.375,36.859,169.672,36.63,170.014,36.458z"/>
		</g>
	</g>
</g>
</svg>
