<?xml version="1.0" encoding="utf-8"?>
<!-- Generator: Adobe Illustrator 15.0.0, SVG Export Plug-In . SVG Version: 6.00 Build 0)  -->
<!DOCTYPE svg PUBLIC "-//W3C//DTD SVG 1.1//EN" "http://www.w3.org/Graphics/SVG/1.1/DTD/svg11.dtd">
<svg version="1.1" id="Calque_1" xmlns="http://www.w3.org/2000/svg" xmlns:xlink="http://www.w3.org/1999/xlink" x="0px" y="0px"
	 width="200px" height="237px" viewBox="0 0 200 237" enable-background="new 0 0 200 237" xml:space="preserve">
<g>
	<g>
		<path fill="#FFFFFF" d="M78.614,49.46c2.014-1.238,12.872-7.007,30.388,0.224c18.018,7.436,29.196,0.978,30.584,0.099
			c-4.356-7.161-9.536-13.392-15.265-17.582c0.382-0.105,0.771-0.21,1.184-0.333c7.597-2.197,9.525-8.628,9.933-14.135
			c0.458-6.247,0.775-6.343,2.133-11.963c1.303-5.398-0.149-6.478-1.489-5.388c-0.722,0.586-6.999,2.037-10.725,4.942
			c-6.012,4.691-9.718,13.611-11.397,18.543c-0.031,0.076-0.259,0.761-0.335,0.999c-0.782,1.889-2.342,1.883-2.342,1.883v0.001
			c-0.756-0.083-1.515-0.126-2.28-0.126c-0.682,0-1.36,0.037-2.038,0.102c-0.015,0.002-0.022,0-0.039,0.001
			c-1.994,0.294-3.09-2.14-3.319-2.72c-2.329-6.689-8.595-19.878-22.678-23.426c0,0-2.558-1.959-1.778,1.354
			c0.742,3.167,2.275,6.368,1.935,11.022c-0.155,2.149-1.489,13.168,8.639,18.903c0.962,0.544,1.818,1.003,2.586,1.388
			C87.21,37.331,82.578,43.011,78.614,49.46z"/>
		<path fill="#FFFFFF" d="M145.103,150.23c-12.409-7.688-16.585-10.392-16.324-13.334c0,0,0.003-0.478,0.125-1.207
			c0.301-1.56,1.254-4.223,4.296-5.739c0.1-0.051,0.184-0.106,0.263-0.163c9.668-5.612,16.732-14.646,19.225-25.925
			c-2.512,6.23-21.104,11.072-43.688,11.072c-22.576,0-41.174-4.841-43.682-11.072c0.558,2.532,1.354,4.946,2.351,7.24
			c0.839,4.723,1.969,15.843-3.372,25.576c-4.705,8.574-27.931,20.265-62.4,13.553c0,0-1.383-0.964-1.801-0.17
			c-0.618,1.175,1.913,2.125,4.52,2.812c23.998,6.355,60.22,3.77,71.596-5.603c5.19-4.272,7.192-10.029,7.702-16.224l0.004,0.01
			c0,0,0.139-1.622,2.167-0.404c0.581,0.351,2.679,1.716,3.014,3.26c0.293,2.198,0.312,4.897-0.823,6.787
			c-1.623,2.702-1.64,3.091,0.496,4.618c1.311,0.935,6.667,4.872,14.121,9.35c0.019,0.013,0.028,0.023,0.047,0.034
			c1.577,0.949,3.768,3.275,3.768,3.275l0,0c3.356,3.883,10.658,11.694,13.836,10.225c1.502-0.695-0.063-3.824-0.063-3.824
			s2.496,3.241,3.837,2.137c1.02-0.843-0.596-4.071-0.596-4.071s2.179,1.891,3.475,1.191c1.588-0.855-0.233-5.819-12.708-13.402
			c-12.479-7.587-15.861-8.751-16.159-12.137c0,0-0.006-0.171,0.005-0.462c0.098-0.747,0.522-2.328,2.335-2.159
			c2.699,0.437,5.483,0.67,8.334,0.67c3.263,0,6.438-0.299,9.503-0.87l0.001,0.004c0,0,0.159-0.032,0.206-0.041
			c0.358-0.045,1.056-0.021,1.059,0.847c-0.111,1.101-0.417,2.208-1.064,3.177c-1.825,2.733-1.225,3.108,0.68,4.866
			c1.177,1.084,6.571,5.828,13.962,10.421c0.014,0.011,0.021,0.02,0.038,0.029c1.575,0.948,4.3,3.552,4.3,3.552v-0.002
			c3.062,3.109,8.692,8.317,11.761,8.005c2.075-0.214,0.385-3.786,0.385-3.786s2.622,2.528,3.907,1.785
			c1.44-0.831-0.596-3.474-0.596-3.474s1.688,0.892,2.88,0.596C157.215,160.953,157.511,157.917,145.103,150.23z"/>
	</g>
	<path fill="#FFFFFF" d="M131.239,63.348c-1.49,0-2.727,0.448-3.674,1.332c-0.957,0.896-1.442,1.931-1.442,3.075v20.247
		c0,2.717-0.479,4.719-1.43,5.953c-0.918,1.193-2.385,1.773-4.483,1.773c-2.148,0-3.611-0.576-4.476-1.76
		c-0.902-1.235-1.359-3.242-1.359-5.966V67.675c0-1.385-0.631-2.517-1.826-3.273c-1.626-1.024-3.241-1.395-5.207-0.741
		c-0.601,0.201-1.165,0.462-1.68,0.776c-0.548,0.334-1.012,0.753-1.379,1.242c-0.406,0.544-0.611,1.136-0.611,1.76v20.562
		c0,2.721-0.458,4.728-1.361,5.965c-0.867,1.186-2.331,1.761-4.474,1.761c-2.15,0-3.628-0.579-4.521-1.767
		c-0.926-1.235-1.396-3.241-1.396-5.959V67.755c0-1.144-0.485-2.179-1.444-3.075c-0.948-0.884-2.209-1.332-3.749-1.332
		c-1.587,0-2.896,0.443-3.891,1.317c-1.022,0.896-1.54,1.936-1.54,3.089v19.932c0,2.507,0.245,4.878,0.726,7.046
		c0.494,2.216,1.357,4.161,2.566,5.782c1.22,1.638,2.876,2.931,4.925,3.847c2.026,0.903,4.561,1.36,7.534,1.36
		c3.098,0,5.693-0.574,7.711-1.706c1.692-0.951,3.118-2.2,4.25-3.722c1.092,1.522,2.485,2.771,4.155,3.721
		c1.991,1.133,4.626,1.708,7.832,1.708c2.973,0,5.496-0.459,7.499-1.363c2.019-0.915,3.66-2.208,4.883-3.844
		c1.21-1.626,2.073-3.572,2.565-5.782c0.479-2.168,0.725-4.539,0.725-7.046V67.755c0-1.148-0.503-2.186-1.491-3.083
		C134.206,63.792,132.88,63.348,131.239,63.348z"/>
	<g>
		<path fill="#FFFFFF" d="M40.236,210.695c-0.662,0-1.211,0.198-1.632,0.591c-0.424,0.398-0.64,0.857-0.64,1.365v8.993
			c0,1.207-0.214,2.097-0.636,2.644c-0.407,0.53-1.06,0.789-1.991,0.789c-0.955,0-1.604-0.256-1.987-0.783
			c-0.402-0.548-0.605-1.439-0.605-2.649v-9.028c0-0.616-0.28-1.119-0.81-1.453c-0.722-0.457-1.44-0.621-2.312-0.33
			c-0.267,0.091-0.518,0.206-0.747,0.346c-0.244,0.148-0.449,0.332-0.612,0.55c-0.181,0.242-0.272,0.506-0.272,0.783v9.133
			c0,1.21-0.203,2.099-0.604,2.649c-0.386,0.527-1.036,0.783-1.988,0.783c-0.955,0-1.611-0.259-2.007-0.786
			c-0.411-0.548-0.62-1.439-0.62-2.646v-8.993c0-0.508-0.215-0.967-0.642-1.365c-0.421-0.393-0.98-0.591-1.665-0.591
			c-0.705,0-1.288,0.195-1.729,0.583c-0.455,0.398-0.685,0.859-0.685,1.373v8.854c0,1.112,0.109,2.168,0.323,3.129
			c0.219,0.984,0.602,1.849,1.139,2.569c0.543,0.729,1.278,1.303,2.189,1.709c0.899,0.401,2.025,0.604,3.345,0.604
			c1.376,0,2.529-0.255,3.426-0.758c0.751-0.423,1.385-0.979,1.888-1.654c0.485,0.676,1.103,1.231,1.845,1.651
			c0.885,0.506,2.056,0.761,3.479,0.761c1.32,0,2.441-0.206,3.332-0.607c0.895-0.406,1.625-0.98,2.169-1.706
			c0.537-0.723,0.92-1.588,1.139-2.569c0.213-0.961,0.321-2.017,0.321-3.129v-8.854c0-0.511-0.222-0.97-0.662-1.367
			C41.554,210.891,40.964,210.695,40.236,210.695z"/>
		<path fill="#FFFFFF" d="M66.336,212.767c-0.624-0.648-1.434-1.162-2.407-1.527c-0.966-0.362-2.122-0.544-3.434-0.544
			c-1.415,0-2.672,0.25-3.737,0.745c-1.062,0.494-1.957,1.151-2.657,1.95c-0.699,0.794-1.238,1.701-1.598,2.688
			c-0.361,0.989-0.544,2-0.544,3.012v3.079c0,0.915,0.14,1.819,0.417,2.686c0.28,0.874,0.706,1.662,1.264,2.344
			c0.563,0.684,1.292,1.247,2.169,1.673c0.88,0.429,1.915,0.646,3.076,0.646c0.719,0,1.336-0.058,1.834-0.164
			c0.506-0.113,0.954-0.278,1.329-0.489c0.375-0.212,0.7-0.462,0.966-0.739c0.158-0.165,0.312-0.344,0.458-0.533v0.143
			c0,0.509,0.216,0.968,0.64,1.366c0.42,0.393,0.968,0.59,1.63,0.59c0.73,0,1.319-0.197,1.75-0.587
			c0.44-0.398,0.663-0.86,0.663-1.369v-9.798c0-1.033-0.147-1.995-0.436-2.863C67.427,214.19,66.961,213.415,66.336,212.767z
			 M58.981,215.438c0.446-0.204,0.956-0.306,1.515-0.306c0.969,0,1.719,0.217,2.231,0.646c0.495,0.412,0.746,1.162,0.746,2.229
			v3.289c0,0.629-0.108,1.185-0.323,1.653c-0.214,0.474-0.496,0.869-0.835,1.177c-0.34,0.308-0.736,0.547-1.174,0.706
			c-0.441,0.162-0.905,0.245-1.38,0.245c-0.857,0-1.553-0.27-2.127-0.825c-0.572-0.549-0.849-1.185-0.849-1.942v-3.359
			c0-0.517,0.092-1.009,0.274-1.457c0.183-0.453,0.44-0.862,0.764-1.22C58.14,215.924,58.53,215.641,58.981,215.438z"/>
		<path fill="#FFFFFF" d="M80.58,204.746c-0.703,0-1.285,0.195-1.728,0.586c-0.453,0.398-0.684,0.86-0.684,1.37v20.855
			c0,0.512,0.231,0.973,0.684,1.374c0.443,0.387,1.025,0.585,1.728,0.585c0.686,0,1.247-0.2,1.667-0.594
			c0.425-0.398,0.642-0.856,0.642-1.365v-20.855c0-0.507-0.217-0.967-0.642-1.364C81.826,204.944,81.266,204.746,80.58,204.746z"/>
		<path fill="#FFFFFF" d="M95.521,204.746c-0.703,0-1.286,0.195-1.728,0.586c-0.453,0.398-0.684,0.86-0.684,1.37v20.855
			c0,0.512,0.231,0.973,0.684,1.374c0.442,0.387,1.025,0.585,1.728,0.585c0.686,0,1.246-0.2,1.667-0.594
			c0.424-0.398,0.642-0.856,0.642-1.365v-20.855c0-0.507-0.217-0.967-0.642-1.364C96.768,204.944,96.208,204.746,95.521,204.746z"/>
		<path fill="#FFFFFF" d="M121.764,212.767c-0.626-0.648-1.435-1.162-2.407-1.527c-0.967-0.362-2.123-0.544-3.435-0.544
			c-1.415,0-2.673,0.25-3.735,0.745c-1.062,0.494-1.957,1.151-2.658,1.95c-0.698,0.794-1.235,1.698-1.599,2.688
			c-0.359,0.989-0.544,2-0.544,3.012v3.079c0,0.912,0.141,1.816,0.418,2.686c0.279,0.874,0.703,1.662,1.264,2.344
			c0.562,0.684,1.293,1.247,2.168,1.673c0.881,0.429,1.917,0.646,3.077,0.646c0.719,0,1.336-0.058,1.835-0.164
			c0.505-0.113,0.953-0.278,1.328-0.489c0.374-0.212,0.697-0.462,0.964-0.739c0.158-0.165,0.312-0.344,0.46-0.533v0.143
			c0,0.509,0.215,0.968,0.642,1.366c0.418,0.393,0.968,0.59,1.63,0.59c0.729,0,1.317-0.197,1.751-0.587
			c0.438-0.398,0.66-0.86,0.66-1.369v-9.798c0-1.033-0.146-1.995-0.436-2.863C122.854,214.193,122.389,213.418,121.764,212.767z
			 M114.406,215.438c0.447-0.204,0.957-0.306,1.516-0.306c0.968,0,1.719,0.217,2.23,0.646c0.495,0.412,0.747,1.162,0.747,2.229
			v3.289c0,0.626-0.109,1.185-0.322,1.653c-0.214,0.474-0.496,0.869-0.835,1.177c-0.341,0.308-0.736,0.547-1.175,0.706
			c-0.441,0.162-0.905,0.245-1.381,0.245c-0.856,0-1.553-0.27-2.126-0.825c-0.572-0.549-0.852-1.185-0.852-1.942v-3.359
			c0-0.517,0.094-1.009,0.276-1.457c0.182-0.453,0.438-0.862,0.763-1.22C113.568,215.924,113.957,215.641,114.406,215.438z"/>
		<path fill="#FFFFFF" d="M147.969,213.136c-0.635-0.77-1.45-1.377-2.424-1.803c-0.972-0.423-2.132-0.638-3.45-0.638
			c-0.925,0-1.769,0.167-2.506,0.497c-0.579,0.262-1.089,0.613-1.52,1.05v-5.54c0-0.507-0.216-0.967-0.642-1.364
			c-0.421-0.394-0.98-0.592-1.666-0.592c-0.704,0-1.285,0.195-1.728,0.586c-0.453,0.398-0.684,0.86-0.684,1.37v15.571
			c0,1.039,0.178,2.015,0.53,2.896c0.353,0.89,0.89,1.679,1.599,2.338c0.705,0.654,1.595,1.171,2.648,1.536
			c1.04,0.357,2.27,0.541,3.653,0.541c1.344,0,2.533-0.228,3.539-0.673c1.002-0.45,1.857-1.063,2.536-1.83
			c0.681-0.764,1.189-1.659,1.517-2.664c0.324-0.995,0.489-2.069,0.489-3.193v-2.031c0-1.211-0.16-2.344-0.47-3.362
			C149.079,214.806,148.601,213.899,147.969,213.136z M141.781,225.146c-1.077,0-1.987-0.231-2.701-0.685
			c-0.68-0.434-1.011-1.104-1.011-2.047v-4.012c0.043-1.137,0.376-1.976,0.989-2.484c0.627-0.521,1.426-0.785,2.372-0.785
			c1.111,0,1.982,0.341,2.661,1.041c0.674,0.696,1.017,1.737,1.017,3.092v2.099c0,1.151-0.31,2.083-0.92,2.767
			C143.58,224.815,142.792,225.146,141.781,225.146z"/>
		<path fill="#FFFFFF" d="M172.921,212.767c-0.624-0.648-1.435-1.162-2.408-1.527c-0.967-0.362-2.12-0.544-3.434-0.544
			c-1.415,0-2.672,0.25-3.737,0.745c-1.061,0.494-1.953,1.151-2.656,1.95c-0.699,0.794-1.237,1.698-1.597,2.688
			c-0.362,0.989-0.545,2-0.545,3.012v3.079c0,0.912,0.141,1.816,0.416,2.686c0.28,0.874,0.706,1.662,1.263,2.344
			c0.564,0.684,1.295,1.247,2.172,1.673c0.879,0.429,1.915,0.646,3.074,0.646c0.72,0,1.335-0.058,1.836-0.164
			c0.506-0.113,0.953-0.278,1.329-0.489c0.374-0.212,0.698-0.462,0.962-0.739c0.16-0.165,0.313-0.344,0.459-0.533v0.143
			c0,0.509,0.218,0.968,0.643,1.366c0.421,0.393,0.967,0.59,1.629,0.59c0.731,0,1.319-0.197,1.751-0.587
			c0.439-0.398,0.662-0.86,0.662-1.369v-9.798c0-1.033-0.146-1.995-0.435-2.863C174.011,214.193,173.547,213.418,172.921,212.767z
			 M165.562,215.438c0.448-0.204,0.96-0.306,1.518-0.306c0.969,0,1.72,0.217,2.23,0.646c0.495,0.412,0.745,1.162,0.745,2.229v3.289
			c0,0.626-0.107,1.185-0.322,1.653c-0.214,0.474-0.493,0.869-0.835,1.177c-0.341,0.308-0.736,0.547-1.173,0.706
			c-0.442,0.162-0.907,0.245-1.38,0.245c-0.856,0-1.553-0.27-2.129-0.825c-0.571-0.549-0.85-1.185-0.85-1.942v-3.359
			c0-0.517,0.094-1.009,0.275-1.457c0.184-0.453,0.439-0.862,0.764-1.22C164.725,215.924,165.114,215.641,165.562,215.438z"/>
		<path fill="#FFFFFF" d="M199.567,214.894c-0.295-0.856-0.762-1.61-1.388-2.236c-0.624-0.624-1.432-1.118-2.407-1.473
			c-0.965-0.35-2.118-0.524-3.429-0.524c-1.416,0-2.668,0.25-3.72,0.747c-1.054,0.494-1.94,1.157-2.642,1.968
			c-0.7,0.808-1.233,1.758-1.582,2.818c-0.347,1.052-0.522,2.157-0.522,3.281v2.066c0,2.444,0.627,4.4,1.859,5.821
			c1.248,1.429,3.034,2.154,5.31,2.154c1.214,0,2.214-0.214,2.97-0.637c0.514-0.286,0.95-0.636,1.303-1.042v1.015
			c0,0.774-0.089,1.403-0.261,1.867c-0.168,0.45-0.398,0.811-0.685,1.066c-0.285,0.256-0.629,0.432-1.02,0.524
			c-0.417,0.1-0.888,0.148-1.396,0.148c-0.841,0-1.497-0.046-1.954-0.135c-0.5-0.098-0.882-0.146-1.162-0.146
			c-0.733,0-1.294,0.185-1.668,0.541c-0.376,0.363-0.568,0.853-0.568,1.452c0,0.811,0.437,1.5,1.354,2.077
			c0.33,0.126,0.844,0.232,1.577,0.332c0.712,0.094,1.527,0.143,2.421,0.143c1.052,0,2.074-0.159,3.033-0.469
			c0.967-0.317,1.836-0.801,2.577-1.446c0.742-0.646,1.342-1.47,1.778-2.45c0.434-0.981,0.656-2.16,0.656-3.506v-11.233
			C200.004,216.655,199.855,215.74,199.567,214.894z M190.838,215.433c0.442-0.223,0.95-0.333,1.506-0.333
			c0.973,0,1.725,0.201,2.238,0.6c0.495,0.385,0.737,0.967,0.737,1.78v4.363c-0.044,1.13-0.377,1.929-1.02,2.445
			c-0.662,0.53-1.429,0.789-2.341,0.789c-2.239,0-3.327-1.113-3.327-3.399v-2.344c0-0.591,0.093-1.148,0.277-1.659
			c0.184-0.512,0.442-0.96,0.767-1.339C189.997,215.963,190.387,215.657,190.838,215.433z"/>
	</g>
</g>
</svg>
