<?xml version="1.0" encoding="utf-8"?>
<!-- Generator: Adobe Illustrator 15.0.0, SVG Export Plug-In . SVG Version: 6.00 Build 0)  -->
<!DOCTYPE svg PUBLIC "-//W3C//DTD SVG 1.1//EN" "http://www.w3.org/Graphics/SVG/1.1/DTD/svg11.dtd">
<svg version="1.1" id="Calque_1" xmlns="http://www.w3.org/2000/svg" xmlns:xlink="http://www.w3.org/1999/xlink" x="0px" y="0px"
	 width="200px" height="215px" viewBox="0 0 200 215" enable-background="new 0 0 200 215" xml:space="preserve">
<g>
	<g>
		<path fill="#FFFFFF" d="M100.314,63.113c2.569-1.58,16.424-8.941,38.776,0.286c22.991,9.489,37.256,1.248,39.026,0.126
			c-5.559-9.137-12.168-17.089-19.479-22.436c0.487-0.133,0.985-0.268,1.512-0.424c9.692-2.803,12.153-11.009,12.673-18.037
			c0.585-7.971,0.99-8.094,2.723-15.266c1.661-6.888-0.191-8.266-1.9-6.875c-0.921,0.749-8.933,2.6-13.685,6.306
			c-7.672,5.987-12.401,17.369-14.546,23.663c-0.04,0.097-0.329,0.971-0.426,1.275C143.99,34.14,142,34.133,142,34.133v0.001
			c-0.964-0.105-1.934-0.161-2.909-0.161c-0.87,0-1.736,0.047-2.601,0.13c-0.019,0.003-0.029,0-0.051,0.001
			c-2.543,0.375-3.942-2.731-4.235-3.471c-2.972-8.536-10.967-25.365-28.938-29.894c0,0-3.265-2.5-2.269,1.729
			c0.946,4.041,2.903,8.125,2.468,14.065c-0.197,2.742-1.899,16.803,11.023,24.121c1.228,0.694,2.319,1.28,3.3,1.771
			C111.283,47.635,105.372,54.884,100.314,63.113z"/>
		<path fill="#FFFFFF" d="M185.157,191.702c-15.835-9.812-21.164-13.262-20.831-17.015c0,0,0.003-0.61,0.159-1.541
			c0.384-1.99,1.601-5.388,5.481-7.324c0.128-0.063,0.235-0.135,0.335-0.207c12.338-7.161,21.353-18.689,24.532-33.082
			c-3.202,7.95-26.929,14.128-55.747,14.128c-28.809,0-52.54-6.178-55.741-14.128c0.712,3.23,1.727,6.311,3,9.238
			c1.071,6.027,2.512,20.217-4.302,32.637c-6.004,10.941-35.642,25.859-79.626,17.294c0,0-1.764-1.23-2.297-0.217
			c-0.79,1.499,2.44,2.709,5.766,3.586c30.624,8.109,76.845,4.811,91.36-7.148c6.623-5.452,9.177-12.797,9.828-20.702l0.005,0.013
			c0,0,0.178-2.07,2.767-0.516c0.741,0.447,3.418,2.189,3.847,4.16c0.373,2.805,0.397,6.248-1.051,8.66
			c-2.07,3.448-2.093,3.944,0.633,5.892c1.673,1.194,8.508,6.219,18.019,11.931c0.024,0.018,0.036,0.032,0.062,0.046
			c2.012,1.21,4.807,4.18,4.807,4.18l0,0c4.282,4.954,13.601,14.922,17.655,13.046c1.916-0.887-0.081-4.881-0.081-4.881
			s3.186,4.138,4.896,2.729c1.301-1.077-0.761-5.196-0.761-5.196s2.78,2.412,4.436,1.521c2.024-1.094-0.3-7.426-16.218-17.103
			c-15.924-9.682-20.239-11.167-20.62-15.488c0,0-0.007-0.217,0.007-0.589c0.125-0.953,0.667-2.972,2.98-2.756
			c3.445,0.558,6.997,0.855,10.635,0.855c4.163,0,8.216-0.382,12.126-1.111l0.001,0.006c0,0,0.204-0.041,0.264-0.052
			c0.457-0.058,1.348-0.027,1.352,1.08c-0.145,1.404-0.533,2.817-1.359,4.054c-2.329,3.488-1.563,3.967,0.868,6.209
			c1.501,1.383,8.385,7.438,17.814,13.296c0.018,0.015,0.026,0.028,0.05,0.039c2.011,1.209,5.486,4.533,5.486,4.533v-0.004
			c3.908,3.97,11.094,10.613,15.01,10.214c2.647-0.271,0.491-4.831,0.491-4.831s3.345,3.229,4.985,2.278
			c1.838-1.059-0.761-4.432-0.761-4.432s2.153,1.14,3.673,0.761C200.612,205.383,200.993,201.509,185.157,191.702z"/>
	</g>
	<path fill="#FFFFFF" d="M167.466,80.835c-1.9,0-3.479,0.572-4.687,1.701c-1.222,1.143-1.841,2.463-1.841,3.923v25.835
		c0,3.468-0.613,6.021-1.824,7.596c-1.171,1.523-3.044,2.264-5.723,2.264c-2.739,0-4.606-0.734-5.709-2.246
		c-1.152-1.576-1.736-4.137-1.736-7.613V86.357c0-1.767-0.805-3.211-2.329-4.177c-2.074-1.306-4.136-1.779-6.645-0.945
		c-0.766,0.256-1.486,0.589-2.144,0.99c-0.7,0.426-1.291,0.961-1.759,1.585c-0.519,0.694-0.782,1.45-0.782,2.246v26.238
		c0,3.473-0.583,6.034-1.735,7.611c-1.107,1.514-2.975,2.248-5.71,2.248c-2.743,0-4.63-0.738-5.768-2.255
		c-1.182-1.576-1.78-4.136-1.78-7.604V86.459c0-1.46-0.619-2.78-1.843-3.923c-1.21-1.129-2.819-1.701-4.784-1.701
		c-2.025,0-3.695,0.566-4.965,1.681c-1.305,1.143-1.965,2.47-1.965,3.943v25.434c0,3.199,0.312,6.225,0.926,8.991
		c0.631,2.828,1.731,5.311,3.274,7.379c1.557,2.09,3.671,3.739,6.284,4.908c2.586,1.152,5.82,1.735,9.614,1.735
		c3.953,0,7.265-0.732,9.84-2.177c2.16-1.213,3.979-2.807,5.424-4.749c1.394,1.942,3.172,3.536,5.302,4.747
		c2.542,1.446,5.904,2.179,9.994,2.179c3.794,0,7.014-0.585,9.57-1.738c2.575-1.168,4.67-2.817,6.23-4.905
		c1.544-2.076,2.645-4.559,3.272-7.379c0.613-2.767,0.926-5.792,0.926-8.991V86.459c0-1.466-0.642-2.789-1.904-3.934
		C171.252,81.403,169.561,80.835,167.466,80.835z"/>
</g>
</svg>
