<?xml version="1.0" encoding="utf-8"?>
<!-- Generator: Adobe Illustrator 15.0.0, SVG Export Plug-In . SVG Version: 6.00 Build 0)  -->
<!DOCTYPE svg PUBLIC "-//W3C//DTD SVG 1.1//EN" "http://www.w3.org/Graphics/SVG/1.1/DTD/svg11.dtd">
<svg version="1.1" id="Calque_1" xmlns="http://www.w3.org/2000/svg" xmlns:xlink="http://www.w3.org/1999/xlink" x="0px" y="0px"
	 width="200px" height="215px" viewBox="0 0 200 215" enable-background="new 0 0 200 215" xml:space="preserve">
<g>
	<g>
		<path d="M100.16,63.016c2.566-1.577,16.399-8.927,38.717,0.285c22.956,9.475,37.198,1.246,38.966,0.126
			c-5.55-9.123-12.148-17.062-19.448-22.401c0.487-0.133,0.984-0.268,1.509-0.423c9.678-2.799,12.136-10.992,12.653-18.01
			c0.585-7.958,0.989-8.081,2.719-15.242c1.659-6.877-0.19-8.253-1.897-6.865c-0.919,0.748-8.918,2.596-13.663,6.296
			c-7.66,5.978-12.382,17.343-14.523,23.626c-0.04,0.097-0.328,0.97-0.425,1.272c-0.998,2.407-2.984,2.4-2.984,2.4v0.002
			c-0.963-0.105-1.931-0.161-2.905-0.161c-0.868,0-1.733,0.047-2.597,0.129c-0.019,0.003-0.029,0-0.05,0.002
			c-2.54,0.375-3.938-2.727-4.229-3.466c-2.967-8.522-10.95-25.326-28.894-29.847c0,0-3.259-2.496-2.265,1.726
			c0.945,4.035,2.898,8.113,2.465,14.043c-0.198,2.737-1.897,16.777,11.006,24.083c1.226,0.693,2.315,1.278,3.294,1.768
			C111.112,47.562,105.21,54.8,100.16,63.016z"/>
		<path d="M184.874,191.407c-15.812-9.797-21.134-13.241-20.801-16.989c0,0,0.003-0.609,0.159-1.538
			c0.383-1.987,1.598-5.379,5.474-7.313c0.128-0.062,0.234-0.135,0.334-0.206c12.32-7.15,21.32-18.661,24.495-33.031
			c-3.199,7.938-26.888,14.105-55.662,14.105c-28.764,0-52.458-6.168-55.655-14.105c0.711,3.226,1.724,6.301,2.995,9.225
			c1.069,6.018,2.508,20.185-4.295,32.586c-5.995,10.924-35.587,25.819-79.503,17.268c0,0-1.763-1.229-2.295-0.217
			c-0.788,1.496,2.437,2.705,5.759,3.58c30.575,8.098,76.726,4.803,91.219-7.137c6.613-5.444,9.163-12.778,9.812-20.671l0.006,0.013
			c0,0,0.177-2.067,2.762-0.515c0.74,0.446,3.413,2.187,3.841,4.153c0.372,2.801,0.396,6.238-1.049,8.647
			c-2.067,3.442-2.09,3.938,0.632,5.883c1.67,1.191,8.494,6.208,17.99,11.912c0.024,0.018,0.037,0.031,0.062,0.045
			c2.009,1.208,4.8,4.174,4.8,4.174l0,0c4.275,4.946,13.579,14.898,17.628,13.025c1.913-0.886-0.081-4.873-0.081-4.873
			s3.181,4.131,4.889,2.724c1.299-1.074-0.76-5.188-0.76-5.188s2.776,2.408,4.429,1.52c2.021-1.093-0.299-7.415-16.192-17.076
			c-15.898-9.667-20.208-11.149-20.588-15.465c0,0-0.007-0.217,0.007-0.588c0.124-0.952,0.665-2.967,2.976-2.752
			c3.439,0.557,6.985,0.854,10.618,0.854c4.156,0,8.203-0.382,12.106-1.109l0.002,0.005c0,0,0.203-0.04,0.263-0.051
			c0.457-0.058,1.346-0.027,1.35,1.078c-0.144,1.402-0.532,2.813-1.356,4.047c-2.326,3.483-1.562,3.961,0.866,6.2
			c1.498,1.381,8.372,7.427,17.787,13.275c0.018,0.014,0.026,0.028,0.049,0.039c2.008,1.207,5.479,4.526,5.479,4.526v-0.004
			c3.901,3.963,11.075,10.597,14.985,10.197c2.644-0.27,0.49-4.823,0.49-4.823s3.34,3.224,4.978,2.275
			c1.835-1.058-0.759-4.425-0.759-4.425s2.149,1.138,3.668,0.76C200.305,205.066,200.683,201.198,184.874,191.407z"/>
	</g>
	<path d="M167.208,80.71c-1.897,0-3.473,0.571-4.679,1.698c-1.22,1.141-1.838,2.459-1.838,3.917v25.795
		c0,3.462-0.612,6.013-1.822,7.584c-1.169,1.521-3.038,2.26-5.713,2.26c-2.736,0-4.601-0.733-5.701-2.242
		c-1.15-1.573-1.732-4.131-1.732-7.602V86.224c0-1.764-0.804-3.207-2.326-4.171c-2.071-1.304-4.13-1.777-6.635-0.944
		c-0.765,0.256-1.484,0.588-2.141,0.989c-0.698,0.425-1.288,0.959-1.755,1.582c-0.519,0.693-0.781,1.448-0.781,2.242v26.198
		c0,3.467-0.583,6.024-1.732,7.6c-1.106,1.511-2.971,2.244-5.701,2.244c-2.739,0-4.623-0.737-5.759-2.251
		c-1.18-1.573-1.778-4.129-1.778-7.593V86.326c0-1.458-0.618-2.776-1.84-3.917c-1.208-1.127-2.814-1.698-4.776-1.698
		c-2.021,0-3.69,0.565-4.957,1.679c-1.303,1.141-1.962,2.466-1.962,3.937v25.394c0,3.194,0.312,6.216,0.924,8.978
		c0.63,2.823,1.729,5.302,3.27,7.367c1.555,2.087,3.665,3.734,6.275,4.901c2.581,1.15,5.811,1.733,9.599,1.733
		c3.947,0,7.254-0.732,9.825-2.175c2.156-1.211,3.973-2.802,5.415-4.741c1.392,1.939,3.167,3.53,5.293,4.74
		c2.538,1.443,5.896,2.176,9.979,2.176c3.788,0,7.003-0.585,9.555-1.736c2.571-1.166,4.663-2.813,6.222-4.898
		c1.542-2.072,2.641-4.551,3.268-7.367c0.612-2.762,0.924-5.783,0.924-8.978V86.326c0-1.463-0.641-2.785-1.9-3.928
		C170.989,81.277,169.3,80.71,167.208,80.71z"/>
</g>
</svg>
